<svg xmlns="http://www.w3.org/2000/svg" xmlns:xlink="http://www.w3.org/1999/xlink" width="150" zoomAndPan="magnify" viewBox="0 0 112.5 112.499997" height="150" preserveAspectRatio="xMidYMid meet" version="1.0"><defs><clipPath id="0918916d15"><path d="M 1.679688 0 L 110 0 L 110 112 L 1.679688 112 Z M 1.679688 0 " clip-rule="nonzero"/></clipPath></defs><g clip-path="url(#0918916d15)"><path fill="#cca650" d="M 109.402344 80.835938 L 98.167969 57.601562 C 97.730469 56.679688 96.9375 55.980469 95.972656 55.648438 C 95.007812 55.320312 93.957031 55.386719 93.035156 55.824219 L 87.503906 58.503906 C 86.585938 58.941406 85.882812 59.730469 85.554688 60.71875 C 85.222656 61.683594 85.289062 62.738281 85.726562 63.636719 L 86.757812 65.785156 C 86.539062 65.894531 86.320312 66.003906 86.101562 66.113281 C 85.53125 66.398438 84.828125 66.488281 84.191406 66.335938 L 83.03125 66.027344 L 83.03125 28.820312 C 83.03125 28.554688 82.964844 28.292969 82.832031 28.050781 C 82.8125 28.027344 82.8125 27.984375 82.789062 27.964844 C 82.722656 27.832031 82.613281 27.699219 82.503906 27.589844 L 71.335938 16.402344 L 71.335938 1.789062 C 71.335938 0.824219 70.546875 0.0351562 69.582031 0.0351562 L 3.433594 0.0351562 C 2.46875 0.0351562 1.679688 0.824219 1.679688 1.789062 L 1.679688 85.398438 C 1.679688 86.363281 2.46875 87.15625 3.433594 87.15625 L 13.375 87.15625 L 13.375 95.535156 C 13.375 96.5 14.164062 97.289062 15.128906 97.289062 L 41.742188 97.289062 C 42.203125 98.300781 42.949219 99.15625 43.957031 99.746094 C 44.679688 100.164062 45.449219 100.382812 46.238281 100.449219 C 46.214844 100.667969 46.195312 100.910156 46.195312 101.128906 C 46.195312 103.058594 47.226562 104.835938 48.894531 105.804688 C 49.75 106.285156 50.671875 106.527344 51.570312 106.527344 C 52.445312 106.527344 53.324219 106.308594 54.113281 105.890625 C 54.574219 106.703125 55.253906 107.382812 56.089844 107.863281 C 56.945312 108.347656 57.867188 108.589844 58.765625 108.589844 C 59.25 108.589844 59.753906 108.523438 60.214844 108.390625 C 60.628906 109.578125 61.464844 110.605469 62.582031 111.242188 C 63.4375 111.726562 64.359375 111.96875 65.257812 111.96875 C 67.125 111.96875 68.945312 111.003906 69.933594 109.269531 L 70.898438 107.578125 L 73.992188 109.378906 C 74.78125 109.839844 75.636719 110.035156 76.46875 110.035156 C 78.203125 110.035156 79.894531 109.136719 80.835938 107.535156 C 81.1875 106.898438 81.40625 106.21875 81.472656 105.539062 C 83.316406 105.648438 85.15625 104.75 86.125 103.058594 L 86.234375 102.863281 C 86.671875 102.09375 86.914062 101.238281 86.890625 100.363281 C 87.132812 100.339844 87.375 100.296875 87.617188 100.230469 C 88.910156 99.878906 89.984375 99.046875 90.644531 97.90625 C 91.214844 96.9375 91.433594 95.820312 91.277344 94.722656 C 92.574219 94.371094 93.648438 93.539062 94.308594 92.398438 C 95.050781 91.105469 95.164062 89.589844 94.703125 88.25 L 97.050781 87.21875 C 97.75 88.382812 99.023438 89.0625 100.339844 89.0625 C 100.910156 89.0625 101.457031 88.929688 102.007812 88.691406 L 107.535156 86.015625 C 109.511719 85.046875 110.320312 82.746094 109.402344 80.835938 Z M 66.136719 16.136719 L 77.085938 27.085938 L 66.136719 27.085938 Z M 13.375 83.644531 L 5.191406 83.644531 L 5.191406 3.523438 L 67.871094 3.523438 L 67.871094 12.914062 L 65.632812 10.675781 C 65.523438 10.566406 65.390625 10.476562 65.257812 10.390625 C 65.238281 10.367188 65.195312 10.367188 65.171875 10.347656 C 64.929688 10.234375 64.667969 10.148438 64.402344 10.148438 L 15.105469 10.148438 C 14.867188 10.148438 14.644531 10.191406 14.425781 10.28125 C 13.789062 10.542969 13.351562 11.15625 13.351562 11.882812 L 13.351562 83.644531 Z M 16.863281 13.660156 L 62.648438 13.660156 L 62.648438 28.820312 C 62.648438 29.785156 63.4375 30.574219 64.402344 30.574219 L 79.5625 30.574219 L 79.5625 65.128906 L 77.675781 64.644531 C 75.066406 63.988281 72.324219 64.46875 70.109375 65.941406 L 69.03125 66.664062 L 65.941406 65.128906 C 64.402344 64.359375 62.691406 64.117188 61.003906 64.402344 L 54.464844 65.523438 C 54.113281 65.589844 53.71875 65.542969 53.414062 65.367188 L 50.910156 64.117188 L 51.460938 62.976562 L 51.480469 62.910156 C 52.382812 61.003906 51.589844 58.699219 49.683594 57.777344 L 44.109375 55.125 C 42.203125 54.203125 39.898438 55.015625 38.976562 56.921875 L 27.742188 80.15625 C 26.820312 82.066406 27.613281 84.367188 29.519531 85.289062 L 35.050781 87.964844 C 35.289062 88.097656 35.554688 88.1875 35.816406 88.25 C 35.90625 88.273438 35.992188 88.273438 36.058594 88.296875 C 36.234375 88.316406 36.429688 88.359375 36.605469 88.359375 C 36.652344 88.359375 36.671875 88.382812 36.714844 88.382812 C 36.828125 88.382812 36.9375 88.359375 37.046875 88.359375 C 37.132812 88.359375 37.199219 88.359375 37.285156 88.339844 C 37.507812 88.296875 37.746094 88.25 37.96875 88.1875 C 38.933594 87.855469 39.722656 87.15625 40.160156 86.234375 L 40.535156 85.488281 L 42.332031 86.277344 C 42.925781 86.539062 43.34375 87.089844 43.40625 87.769531 L 43.582031 89.613281 L 41.9375 92.441406 C 41.804688 92.660156 41.71875 92.878906 41.609375 93.101562 C 41.585938 93.164062 41.566406 93.253906 41.542969 93.320312 C 41.476562 93.472656 41.433594 93.648438 41.390625 93.800781 C 41.390625 93.824219 41.367188 93.824219 41.367188 93.847656 L 16.863281 93.847656 Z M 36.871094 84.828125 C 36.804688 84.851562 36.714844 84.871094 36.605469 84.808594 L 31.054688 82.128906 C 30.882812 82.042969 30.816406 81.84375 30.902344 81.667969 L 42.136719 58.4375 C 42.179688 58.347656 42.246094 58.304688 42.332031 58.261719 C 42.355469 58.261719 42.378906 58.238281 42.398438 58.238281 C 42.488281 58.21875 42.550781 58.21875 42.640625 58.238281 L 48.167969 60.914062 C 48.34375 61.003906 48.433594 61.199219 48.34375 61.398438 L 47.796875 62.539062 L 44.351562 69.582031 L 38.886719 80.859375 L 38.757812 81.144531 L 37.066406 84.652344 C 37 84.761719 36.914062 84.808594 36.871094 84.828125 Z M 44.746094 95.292969 C 44.722656 95.207031 44.722656 95.140625 44.722656 95.050781 C 44.722656 94.722656 44.8125 94.394531 44.988281 94.109375 L 48.496094 88.011719 C 48.585938 87.878906 48.671875 87.746094 48.78125 87.636719 C 48.804688 87.617188 48.847656 87.570312 48.894531 87.550781 C 48.980469 87.484375 49.070312 87.417969 49.15625 87.351562 C 49.199219 87.328125 49.222656 87.308594 49.265625 87.285156 C 49.398438 87.21875 49.527344 87.15625 49.660156 87.132812 C 49.683594 87.132812 49.703125 87.132812 49.703125 87.132812 C 49.835938 87.109375 49.945312 87.089844 50.078125 87.089844 C 50.121094 87.089844 50.164062 87.089844 50.230469 87.089844 C 50.339844 87.089844 50.429688 87.109375 50.539062 87.132812 C 50.582031 87.132812 50.625 87.15625 50.667969 87.15625 C 50.824219 87.199219 50.957031 87.242188 51.085938 87.328125 C 51.679688 87.679688 52.03125 88.296875 52.03125 88.976562 C 52.03125 89.304688 51.941406 89.632812 51.765625 89.917969 L 51.242188 90.820312 L 48.210938 96.039062 C 47.664062 96.894531 46.546875 97.203125 45.644531 96.675781 C 45.183594 96.414062 44.835938 95.886719 44.746094 95.292969 Z M 50.625 102.753906 C 50.035156 102.425781 49.683594 101.789062 49.683594 101.109375 C 49.683594 100.777344 49.769531 100.449219 49.925781 100.164062 L 51.261719 97.859375 C 51.285156 97.839844 51.304688 97.816406 51.304688 97.773438 L 54.113281 92.878906 L 54.289062 92.574219 C 54.355469 92.441406 54.464844 92.332031 54.554688 92.222656 C 54.597656 92.179688 54.664062 92.113281 54.707031 92.070312 C 54.75 92.023438 54.792969 92.003906 54.839844 91.980469 C 55.210938 91.71875 55.671875 91.609375 56.132812 91.652344 C 56.15625 91.652344 56.175781 91.652344 56.175781 91.652344 C 56.285156 91.675781 56.394531 91.695312 56.503906 91.71875 C 56.550781 91.738281 56.59375 91.761719 56.636719 91.785156 C 56.703125 91.804688 56.789062 91.847656 56.855469 91.894531 C 57.449219 92.246094 57.800781 92.859375 57.800781 93.539062 C 57.800781 93.734375 57.757812 93.933594 57.691406 94.132812 C 57.667969 94.175781 57.667969 94.21875 57.648438 94.261719 C 57.625 94.308594 57.601562 94.351562 57.582031 94.394531 C 57.582031 94.394531 57.582031 94.417969 57.558594 94.417969 L 57.074219 95.273438 L 54.046875 100.492188 C 53.960938 100.648438 53.894531 100.800781 53.808594 100.953125 L 53.148438 102.074219 C 52.6875 102.949219 51.527344 103.28125 50.625 102.753906 Z M 57.820312 104.816406 C 57.230469 104.488281 56.878906 103.851562 56.878906 103.171875 C 56.878906 102.949219 56.921875 102.710938 56.988281 102.511719 L 59.621094 97.949219 C 59.621094 97.949219 59.621094 97.949219 59.621094 97.925781 L 60.609375 96.195312 C 60.652344 96.105469 60.695312 96.019531 60.738281 95.953125 C 60.738281 95.953125 60.761719 95.929688 60.761719 95.929688 C 60.894531 95.753906 61.070312 95.601562 61.246094 95.492188 C 61.265625 95.492188 61.289062 95.46875 61.289062 95.46875 C 61.464844 95.359375 61.660156 95.292969 61.859375 95.25 C 61.878906 95.25 61.878906 95.25 61.902344 95.25 C 62.121094 95.207031 62.320312 95.207031 62.539062 95.226562 C 62.757812 95.273438 62.976562 95.335938 63.175781 95.449219 C 63.175781 95.449219 63.195312 95.46875 63.195312 95.46875 C 63.328125 95.558594 63.4375 95.644531 63.546875 95.734375 C 63.613281 95.820312 63.679688 95.886719 63.746094 95.972656 C 63.746094 95.972656 63.765625 95.996094 63.765625 95.996094 C 63.832031 96.082031 63.878906 96.195312 63.941406 96.324219 C 64.054688 96.566406 64.117188 96.808594 64.117188 97.09375 C 64.117188 97.179688 64.097656 97.269531 64.097656 97.355469 C 64.097656 97.398438 64.097656 97.464844 64.074219 97.511719 C 64.054688 97.574219 64.03125 97.621094 64.03125 97.683594 C 63.988281 97.796875 63.941406 97.90625 63.898438 98.015625 C 63.898438 98.015625 63.898438 98.015625 63.898438 98.035156 L 62.40625 100.625 C 62.40625 100.648438 62.40625 100.648438 62.386719 100.667969 L 60.390625 104.136719 C 59.90625 105.011719 58.722656 105.34375 57.820312 104.816406 Z M 64.316406 108.171875 C 63.722656 107.84375 63.371094 107.207031 63.371094 106.527344 C 63.371094 106.175781 63.460938 105.867188 63.613281 105.582031 L 66.925781 99.855469 L 67.125 99.507812 C 67.210938 99.351562 67.320312 99.222656 67.429688 99.109375 C 67.453125 99.089844 67.496094 99.066406 67.542969 99.023438 C 67.652344 98.9375 67.761719 98.847656 67.871094 98.78125 C 67.9375 98.761719 67.980469 98.738281 68.046875 98.714844 C 68.175781 98.671875 68.308594 98.628906 68.441406 98.605469 C 68.484375 98.605469 68.507812 98.605469 68.550781 98.585938 C 68.726562 98.5625 68.921875 98.5625 69.097656 98.605469 C 69.097656 98.605469 69.121094 98.605469 69.121094 98.605469 C 69.316406 98.652344 69.515625 98.714844 69.714844 98.824219 C 69.734375 98.824219 69.734375 98.847656 69.757812 98.847656 C 69.84375 98.914062 69.933594 98.980469 70.019531 99.046875 C 70.042969 99.066406 70.0625 99.089844 70.109375 99.132812 C 70.261719 99.308594 70.394531 99.484375 70.480469 99.703125 C 70.503906 99.746094 70.503906 99.769531 70.523438 99.8125 C 70.546875 99.902344 70.589844 99.988281 70.613281 100.078125 C 70.632812 100.140625 70.632812 100.207031 70.632812 100.296875 C 70.632812 100.363281 70.65625 100.425781 70.65625 100.492188 C 70.65625 100.515625 70.65625 100.539062 70.65625 100.539062 C 70.65625 100.824219 70.570312 101.109375 70.4375 101.371094 C 70.414062 101.394531 70.414062 101.414062 70.414062 101.4375 L 68.792969 104.265625 L 66.925781 107.515625 C 66.398438 108.390625 65.238281 108.699219 64.316406 108.171875 Z M 77.851562 105.738281 C 77.4375 106.460938 76.492188 106.722656 75.769531 106.308594 L 72.675781 104.507812 L 73.464844 103.148438 C 73.488281 103.105469 73.507812 103.058594 73.53125 103.015625 C 73.617188 102.863281 73.683594 102.710938 73.726562 102.601562 C 73.816406 102.378906 73.902344 102.160156 73.96875 101.917969 C 73.992188 101.875 73.992188 101.808594 74.011719 101.765625 L 75.484375 102.601562 C 75.546875 102.664062 75.636719 102.730469 75.722656 102.773438 L 77.304688 103.675781 C 78.027344 104.089844 78.269531 105.035156 77.851562 105.738281 Z M 91.367188 90.597656 C 91.167969 90.949219 90.820312 91.214844 90.421875 91.324219 C 90.027344 91.433594 89.632812 91.367188 89.261719 91.167969 L 86.410156 89.523438 C 86.34375 89.480469 86.253906 89.480469 86.1875 89.4375 L 78.355469 84.71875 C 77.523438 84.214844 76.449219 84.476562 75.964844 85.3125 C 75.484375 86.144531 75.722656 87.21875 76.558594 87.703125 L 84.609375 92.550781 C 84.609375 92.550781 84.632812 92.574219 84.632812 92.574219 L 87.132812 94.019531 C 87.484375 94.21875 87.746094 94.546875 87.835938 94.941406 C 87.945312 95.335938 87.878906 95.753906 87.679688 96.105469 C 87.484375 96.457031 87.15625 96.699219 86.757812 96.808594 C 86.363281 96.917969 85.949219 96.851562 85.597656 96.652344 L 84.523438 96.039062 C 84.5 96.039062 84.5 96.019531 84.476562 96.019531 L 74.605469 89.851562 C 73.792969 89.347656 72.71875 89.589844 72.191406 90.402344 C 71.6875 91.214844 71.929688 92.289062 72.742188 92.816406 L 82.570312 98.9375 C 82.589844 98.957031 82.636719 98.980469 82.65625 99 C 83.007812 99.199219 83.25 99.527344 83.359375 99.921875 C 83.46875 100.316406 83.402344 100.734375 83.226562 101.042969 L 83.117188 101.238281 C 82.699219 101.964844 81.78125 102.203125 81.054688 101.789062 L 77.4375 99.703125 C 77.4375 99.703125 77.414062 99.703125 77.414062 99.683594 L 73.089844 97.222656 C 72.828125 96.875 72.519531 96.566406 72.191406 96.28125 C 72.148438 96.257812 72.125 96.214844 72.082031 96.195312 C 71.886719 96.039062 71.6875 95.910156 71.46875 95.777344 C 71.445312 95.777344 71.445312 95.753906 71.425781 95.753906 C 71.378906 95.734375 71.359375 95.710938 71.316406 95.710938 C 71.269531 95.6875 71.203125 95.667969 71.160156 95.644531 C 70.261719 95.207031 69.296875 95.007812 68.332031 95.097656 C 68.046875 95.117188 67.761719 95.164062 67.476562 95.226562 C 67.429688 95.226562 67.386719 95.226562 67.367188 95.25 C 67.34375 95.25 67.34375 95.25 67.320312 95.25 C 67.320312 95.25 67.320312 95.226562 67.320312 95.226562 C 67.167969 94.832031 66.96875 94.4375 66.75 94.085938 C 66.730469 94.066406 66.730469 94.042969 66.707031 94.019531 C 66.554688 93.800781 66.398438 93.582031 66.203125 93.386719 C 66.179688 93.363281 66.160156 93.339844 66.136719 93.296875 C 66.136719 93.296875 66.113281 93.277344 66.113281 93.277344 C 66.027344 93.1875 65.917969 93.101562 65.828125 93.011719 C 65.742188 92.945312 65.675781 92.878906 65.589844 92.816406 C 65.390625 92.660156 65.171875 92.507812 64.953125 92.398438 C 63.722656 91.695312 62.339844 91.519531 61.046875 91.828125 C 61.023438 91.785156 61.023438 91.761719 61.003906 91.71875 C 60.914062 91.476562 60.804688 91.234375 60.695312 90.992188 C 60.675781 90.949219 60.675781 90.929688 60.652344 90.882812 C 60.5 90.621094 60.324219 90.359375 60.148438 90.117188 C 60.125 90.09375 60.105469 90.074219 60.082031 90.050781 C 59.90625 89.832031 59.707031 89.632812 59.511719 89.457031 C 59.46875 89.4375 59.445312 89.390625 59.402344 89.371094 C 59.160156 89.171875 58.917969 88.976562 58.632812 88.820312 C 58.566406 88.777344 58.480469 88.757812 58.414062 88.710938 C 58.21875 88.601562 57.996094 88.515625 57.777344 88.425781 C 57.648438 88.382812 57.515625 88.339844 57.363281 88.296875 C 57.1875 88.25 57.011719 88.207031 56.8125 88.164062 C 56.679688 88.140625 56.570312 88.121094 56.441406 88.121094 C 56.199219 88.097656 55.957031 88.097656 55.714844 88.097656 C 55.648438 88.097656 55.585938 88.097656 55.519531 88.097656 C 55.496094 88.097656 55.472656 88.097656 55.453125 88.097656 C 55.429688 87.921875 55.386719 87.769531 55.34375 87.59375 C 55.34375 87.570312 55.34375 87.527344 55.320312 87.503906 C 55.253906 87.285156 55.1875 87.089844 55.101562 86.890625 C 55.078125 86.824219 55.035156 86.78125 55.015625 86.714844 C 54.949219 86.585938 54.882812 86.429688 54.816406 86.300781 C 54.773438 86.234375 54.730469 86.167969 54.683594 86.101562 C 54.617188 85.992188 54.53125 85.859375 54.445312 85.75 C 54.398438 85.683594 54.332031 85.617188 54.289062 85.554688 C 54.203125 85.441406 54.113281 85.332031 54.003906 85.222656 C 53.9375 85.15625 53.894531 85.113281 53.828125 85.046875 C 53.71875 84.9375 53.609375 84.851562 53.476562 84.742188 C 53.433594 84.699219 53.367188 84.652344 53.324219 84.609375 C 53.148438 84.476562 52.953125 84.347656 52.777344 84.238281 C 52.46875 84.0625 52.160156 83.929688 51.832031 83.820312 C 51.722656 83.777344 51.613281 83.753906 51.527344 83.730469 C 51.304688 83.667969 51.085938 83.621094 50.867188 83.578125 C 50.734375 83.554688 50.625 83.554688 50.496094 83.535156 C 50.296875 83.511719 50.078125 83.511719 49.878906 83.511719 C 49.75 83.511719 49.640625 83.535156 49.507812 83.535156 C 49.289062 83.554688 49.089844 83.601562 48.894531 83.644531 C 48.78125 83.667969 48.671875 83.6875 48.5625 83.730469 C 48.34375 83.796875 48.125 83.886719 47.90625 83.972656 C 47.816406 84.015625 47.753906 84.039062 47.664062 84.082031 C 47.378906 84.238281 47.09375 84.390625 46.832031 84.585938 C 46.808594 84.609375 46.808594 84.609375 46.785156 84.632812 C 46.566406 84.808594 46.371094 84.984375 46.171875 85.179688 C 46.105469 85.070312 46.039062 84.984375 45.976562 84.871094 C 45.910156 84.761719 45.84375 84.675781 45.777344 84.566406 C 45.667969 84.414062 45.535156 84.28125 45.425781 84.148438 C 45.359375 84.0625 45.273438 83.972656 45.207031 83.90625 C 45.054688 83.777344 44.898438 83.644531 44.722656 83.511719 C 44.660156 83.46875 44.59375 83.402344 44.503906 83.335938 C 44.265625 83.183594 44 83.03125 43.714844 82.898438 L 42.046875 82.152344 L 47.3125 71.25 L 49.308594 67.144531 L 51.789062 68.375 C 52.777344 68.855469 53.917969 69.011719 54.992188 68.835938 L 61.507812 67.714844 C 62.472656 67.5625 63.4375 67.695312 64.316406 68.132812 L 65.609375 68.769531 L 56.921875 74.605469 C 55.890625 75.308594 55.253906 76.425781 55.210938 77.675781 C 55.167969 78.925781 55.695312 80.089844 56.660156 80.878906 L 57.820312 81.824219 C 59.09375 82.832031 60.695312 83.359375 62.277344 83.316406 C 62.496094 83.316406 62.738281 83.292969 62.957031 83.25 C 63.261719 83.207031 63.570312 83.160156 63.855469 83.074219 L 74.78125 80.089844 C 75.484375 79.894531 76.207031 79.980469 76.820312 80.351562 L 90.597656 88.140625 C 90.6875 88.296875 90.816406 88.449219 90.972656 88.558594 C 91.585938 89.152344 91.738281 89.960938 91.367188 90.597656 Z M 92.617188 85.332031 L 78.621094 77.414062 C 78.292969 77.238281 77.960938 77.085938 77.632812 76.976562 C 77.546875 76.953125 77.480469 76.910156 77.390625 76.886719 C 77.039062 76.777344 76.710938 76.691406 76.359375 76.644531 C 76.339844 76.644531 76.316406 76.644531 76.292969 76.644531 C 76.054688 76.625 75.835938 76.601562 75.59375 76.601562 C 75.503906 76.601562 75.394531 76.625 75.308594 76.625 C 75.21875 76.625 75.109375 76.625 75.023438 76.644531 C 74.671875 76.691406 74.320312 76.734375 73.945312 76.820312 L 63.042969 79.804688 C 62.011719 80.089844 60.9375 79.871094 60.105469 79.191406 L 58.941406 78.246094 C 58.808594 78.136719 58.789062 78.007812 58.789062 77.917969 C 58.789062 77.832031 58.832031 77.699219 58.960938 77.589844 L 72.058594 68.8125 C 73.441406 67.871094 75.175781 67.585938 76.820312 68 L 83.382812 69.691406 C 84.851562 70.0625 86.410156 69.886719 87.746094 69.207031 C 87.945312 69.121094 88.140625 69.011719 88.339844 68.902344 L 95.644531 84.015625 Z M 106.109375 82.832031 C 106.089844 82.832031 106.089844 82.832031 106.109375 82.832031 L 100.582031 85.507812 C 100.40625 85.597656 100.1875 85.53125 100.097656 85.332031 L 88.867188 62.101562 C 88.820312 61.992188 88.820312 61.902344 88.84375 61.859375 C 88.867188 61.816406 88.910156 61.707031 89.019531 61.660156 L 94.570312 58.984375 C 94.613281 58.960938 94.679688 58.941406 94.722656 58.941406 C 94.765625 58.941406 94.8125 58.941406 94.832031 58.960938 C 94.898438 58.984375 94.988281 59.027344 95.03125 59.136719 L 106.261719 82.371094 C 106.351562 82.527344 106.261719 82.746094 106.109375 82.832031 Z M 22.105469 33.996094 C 22.105469 33.03125 22.894531 32.242188 23.859375 32.242188 L 51.964844 32.242188 C 52.929688 32.242188 53.71875 33.03125 53.71875 33.996094 C 53.71875 34.960938 52.929688 35.75 51.964844 35.75 L 23.839844 35.75 C 22.875 35.730469 22.105469 34.960938 22.105469 33.996094 Z M 22.105469 24.386719 C 22.105469 23.421875 22.894531 22.632812 23.859375 22.632812 L 51.964844 22.632812 C 52.929688 22.632812 53.71875 23.421875 53.71875 24.386719 C 53.71875 25.351562 52.929688 26.140625 51.964844 26.140625 L 23.839844 26.140625 C 22.875 26.140625 22.105469 25.351562 22.105469 24.386719 Z M 70.613281 45.339844 L 23.839844 45.339844 C 22.875 45.339844 22.082031 44.550781 22.082031 43.582031 C 22.082031 42.617188 22.875 41.828125 23.839844 41.828125 L 70.613281 41.828125 C 71.578125 41.828125 72.367188 42.617188 72.367188 43.582031 C 72.367188 44.550781 71.578125 45.339844 70.613281 45.339844 Z M 70.613281 45.339844 " fill-opacity="1" fill-rule="nonzero"/></g></svg>