<svg xmlns="http://www.w3.org/2000/svg" xmlns:xlink="http://www.w3.org/1999/xlink" width="300" zoomAndPan="magnify" viewBox="0 0 224.87999 225" height="300" preserveAspectRatio="xMidYMid meet" version="1.0"><defs><clipPath id="3f6e5273d0"><path d="M 60 13.425781 L 221 13.425781 L 221 121 L 60 121 Z M 60 13.425781 " clip-rule="nonzero"/></clipPath><clipPath id="ee264827d4"><path d="M 0 123 L 224.761719 123 L 224.761719 211.320312 L 0 211.320312 Z M 0 123 " clip-rule="nonzero"/></clipPath></defs><g clip-path="url(#3f6e5273d0)"><path fill="#cca650" d="M 60.792969 78.285156 L 60.792969 92.957031 C 60.792969 95.046875 62.5 96.757812 64.589844 96.757812 L 95.265625 96.757812 C 95.074219 98.464844 94.980469 100.222656 94.980469 101.980469 L 94.980469 117.175781 C 94.980469 119.261719 96.6875 120.972656 98.777344 120.972656 L 182.34375 120.972656 C 184.433594 120.972656 186.144531 119.261719 186.144531 117.175781 L 186.144531 101.980469 C 186.144531 100.222656 186.046875 98.464844 185.859375 96.757812 L 216.53125 96.757812 C 218.621094 96.757812 220.332031 95.046875 220.332031 92.957031 L 220.332031 78.285156 C 220.332031 63.996094 211.023438 51.886719 198.15625 47.613281 C 201.765625 44.003906 203.949219 39.019531 203.949219 33.511719 C 203.949219 22.449219 194.929688 13.425781 183.863281 13.425781 C 173.039062 13.425781 164.207031 22.019531 163.78125 32.703125 C 161.121094 21.640625 151.148438 13.425781 139.28125 13.425781 C 128.027344 13.425781 118.484375 20.785156 115.207031 30.996094 C 113.972656 21.117188 105.519531 13.425781 95.3125 13.425781 C 84.25 13.425781 75.226562 22.449219 75.226562 33.511719 C 75.226562 39.257812 77.648438 44.480469 81.589844 48.136719 C 69.433594 52.789062 60.792969 64.566406 60.792969 78.285156 Z M 212.734375 78.285156 L 212.734375 89.160156 L 184.292969 89.160156 C 180.921875 77.667969 173.132812 68.03125 162.878906 62.238281 C 167.53125 56.777344 174.367188 53.550781 181.679688 53.550781 L 188.042969 53.550781 C 201.671875 53.597656 212.734375 64.660156 212.734375 78.285156 Z M 183.863281 21.023438 C 190.75 21.023438 196.351562 26.625 196.351562 33.511719 C 196.351562 40.398438 190.75 46 183.863281 46 C 176.980469 46 171.375 40.398438 171.375 33.511719 C 171.375 26.625 176.980469 21.023438 183.863281 21.023438 Z M 164.539062 38.925781 C 165.535156 42.484375 167.484375 45.667969 170.140625 48.136719 C 164.492188 50.320312 159.507812 54.023438 155.804688 59.007812 C 155.46875 58.867188 155.136719 58.773438 154.804688 58.675781 C 160.644531 54.070312 164.492188 46.949219 164.539062 38.925781 Z M 139.28125 21.023438 C 149.011719 21.023438 156.988281 28.953125 156.988281 38.734375 C 156.988281 48.515625 149.0625 56.445312 139.28125 56.445312 C 129.5 56.445312 121.570312 48.46875 121.570312 38.734375 C 121.570312 29 129.5 21.023438 139.28125 21.023438 Z M 140.5625 63.996094 C 161.5 63.996094 178.546875 81.039062 178.546875 101.980469 L 178.546875 113.375 L 102.578125 113.375 L 102.578125 101.980469 C 102.578125 81.039062 119.621094 63.996094 140.5625 63.996094 Z M 114.066406 40.585938 C 114.351562 44.527344 115.539062 48.230469 117.4375 51.460938 C 115.015625 49.796875 112.355469 48.515625 109.554688 47.613281 C 111.503906 45.621094 113.070312 43.246094 114.066406 40.585938 Z M 95.265625 21.023438 C 102.148438 21.023438 107.75 26.625 107.75 33.511719 C 107.75 40.398438 102.148438 46 95.265625 46 C 88.378906 46 82.777344 40.398438 82.777344 33.511719 C 82.777344 26.625 88.378906 21.023438 95.265625 21.023438 Z M 93.078125 53.597656 L 99.441406 53.597656 C 106.753906 53.597656 113.542969 56.777344 118.246094 62.285156 C 107.988281 68.078125 100.203125 77.71875 96.832031 89.207031 L 68.390625 89.207031 L 68.390625 78.335938 C 68.390625 64.660156 79.453125 53.597656 93.078125 53.597656 Z M 93.078125 53.597656 " fill-opacity="1" fill-rule="nonzero"/></g><g clip-path="url(#ee264827d4)"><path fill="#cca650" d="M 35.34375 123.585938 L 3.816406 123.585938 C 1.726562 123.585938 0.015625 125.292969 0.015625 127.382812 L 0.015625 197.65625 C 0.015625 199.746094 1.726562 201.453125 3.816406 201.453125 L 35.34375 201.453125 C 37.429688 201.453125 39.140625 199.746094 39.140625 197.65625 L 39.140625 191.625 L 54.335938 191.625 L 99.394531 205.917969 C 109.601562 209.714844 118.199219 211.566406 126.746094 211.566406 C 135.339844 211.566406 143.933594 209.667969 154.1875 205.871094 C 154.570312 205.726562 154.949219 205.539062 155.28125 205.253906 L 221.28125 151.410156 C 221.46875 151.21875 221.660156 151.027344 221.851562 150.839844 C 226.550781 145 226.3125 136.070312 221.28125 130.515625 C 216.292969 124.960938 208.269531 124.390625 202.667969 129.234375 L 169.714844 155.871094 C 169.714844 155.539062 169.714844 155.207031 169.714844 154.875 C 169.574219 146.945312 163.351562 140.441406 155.804688 140.441406 L 119.195312 140.441406 C 117.105469 140.441406 115.109375 139.207031 113.875 137.164062 C 113.59375 136.738281 113.257812 136.355469 112.832031 136.023438 C 97.304688 124.769531 77.695312 122.632812 60.460938 130.328125 L 54.097656 133.175781 L 39.140625 133.175781 L 39.140625 127.382812 C 39.140625 125.292969 37.480469 123.585938 35.34375 123.585938 Z M 19.007812 188.160156 C 16.917969 188.160156 15.210938 186.449219 15.210938 184.359375 C 15.210938 182.269531 16.917969 180.5625 19.007812 180.5625 C 21.097656 180.5625 22.808594 182.269531 22.808594 184.359375 C 22.808594 186.449219 21.097656 188.160156 19.007812 188.160156 Z M 31.542969 137.019531 L 31.542969 193.855469 L 25.324219 193.855469 C 28.363281 191.816406 30.40625 188.347656 30.40625 184.359375 C 30.40625 178.09375 25.277344 172.964844 19.007812 172.964844 C 12.742188 172.964844 7.613281 178.09375 7.613281 184.359375 C 7.613281 188.300781 9.65625 191.816406 12.695312 193.855469 L 7.613281 193.855469 L 7.613281 131.179688 L 31.542969 131.179688 Z M 54.953125 140.820312 C 55.472656 140.820312 55.996094 140.726562 56.472656 140.488281 L 63.59375 137.304688 C 78.125 130.847656 94.597656 132.558594 107.847656 141.816406 C 110.503906 145.757812 114.683594 148.035156 119.242188 148.035156 L 155.851562 148.035156 C 159.269531 148.035156 162.117188 151.171875 162.164062 154.96875 C 162.214844 157.105469 161.453125 159.101562 160.078125 160.476562 C 159.410156 161.140625 158.605469 161.664062 157.796875 161.949219 C 156.707031 162.140625 155.613281 162.234375 154.519531 162.234375 L 113.78125 162.234375 C 111.691406 162.234375 109.984375 163.945312 109.984375 166.03125 C 109.984375 168.121094 111.691406 169.832031 113.78125 169.832031 L 156.230469 169.832031 C 157.371094 169.832031 158.507812 169.6875 159.601562 169.402344 C 164.351562 168.550781 168.8125 166.460938 172.753906 163.324219 L 207.605469 135.121094 C 207.652344 135.074219 207.652344 135.074219 207.699219 135.027344 C 210.167969 132.890625 213.539062 133.175781 215.773438 135.597656 C 218.242188 138.304688 218.429688 142.8125 216.246094 145.804688 L 151.101562 198.984375 C 132.679688 205.726562 120.667969 205.632812 102.101562 198.746094 C 102.054688 198.746094 102.007812 198.699219 101.910156 198.699219 L 56.234375 184.171875 C 55.855469 184.074219 55.472656 183.980469 55.09375 183.980469 L 39.140625 183.980469 L 39.140625 140.773438 L 54.953125 140.773438 Z M 54.953125 140.820312 " fill-opacity="1" fill-rule="nonzero"/></g></svg>