<svg xmlns="http://www.w3.org/2000/svg" xmlns:xlink="http://www.w3.org/1999/xlink" width="150" zoomAndPan="magnify" viewBox="0 0 112.5 112.499997" height="150" preserveAspectRatio="xMidYMid meet" version="1.0"><defs><clipPath id="1539550286"><path d="M 5 18 L 74 18 L 74 100.800781 L 5 100.800781 Z M 5 18 " clip-rule="nonzero"/></clipPath><clipPath id="2db2f72c54"><path d="M 0.175781 92 L 15 92 L 15 100.800781 L 0.175781 100.800781 Z M 0.175781 92 " clip-rule="nonzero"/></clipPath><clipPath id="c91f0b4ba0"><path d="M 96 11.199219 L 112 11.199219 L 112 43 L 96 43 Z M 96 11.199219 " clip-rule="nonzero"/></clipPath></defs><g clip-path="url(#1539550286)"><path fill="#cca650" d="M 72 100.925781 L 7.265625 100.925781 C 6.566406 100.925781 5.996094 100.359375 5.996094 99.65625 C 5.996094 98.957031 6.566406 98.390625 7.265625 98.390625 L 70.730469 98.390625 L 70.730469 44.914062 C 70.730469 44.214844 71.300781 43.644531 72 43.644531 C 72.703125 43.644531 73.269531 44.214844 73.269531 44.914062 L 73.269531 99.65625 C 73.269531 100.359375 72.703125 100.925781 72 100.925781 Z M 13.078125 95.113281 C 12.378906 95.113281 11.8125 94.542969 11.8125 93.84375 L 11.8125 19.886719 C 11.8125 19.183594 12.378906 18.617188 13.078125 18.617188 L 72 18.617188 C 72.703125 18.617188 73.269531 19.183594 73.269531 19.886719 L 73.269531 25.566406 C 73.269531 26.269531 72.703125 26.835938 72 26.835938 C 71.300781 26.835938 70.730469 26.269531 70.730469 25.566406 L 70.730469 21.152344 L 14.347656 21.152344 L 14.347656 93.84375 C 14.347656 94.542969 13.78125 95.113281 13.078125 95.113281 Z M 13.078125 95.113281 " fill-opacity="1" fill-rule="nonzero"/></g><g clip-path="url(#2db2f72c54)"><path fill="#cca650" d="M 7.265625 100.925781 C 3.359375 100.925781 0.183594 97.75 0.183594 93.84375 C 0.183594 93.144531 0.75 92.574219 1.449219 92.574219 L 13.078125 92.574219 C 13.78125 92.574219 14.347656 93.144531 14.347656 93.84375 C 14.347656 97.75 11.171875 100.925781 7.265625 100.925781 Z M 2.898438 95.113281 C 3.449219 97.003906 5.199219 98.390625 7.265625 98.390625 C 9.332031 98.390625 11.082031 97.003906 11.632812 95.113281 Z M 2.898438 95.113281 " fill-opacity="1" fill-rule="nonzero"/></g><path fill="#cca650" d="M 65.238281 94.164062 L 19.839844 94.164062 C 19.136719 94.164062 18.570312 93.597656 18.570312 92.898438 L 18.570312 26.644531 C 18.570312 25.945312 19.136719 25.378906 19.839844 25.378906 L 51.785156 25.378906 C 52.488281 25.378906 53.054688 25.945312 53.054688 26.644531 C 53.054688 27.347656 52.488281 27.914062 51.785156 27.914062 L 21.109375 27.914062 L 21.109375 91.628906 L 63.972656 91.628906 L 63.972656 48.339844 C 63.972656 47.640625 64.539062 47.070312 65.238281 47.070312 C 65.941406 47.070312 66.507812 47.640625 66.507812 48.339844 L 66.507812 92.898438 C 66.507812 93.597656 65.941406 94.164062 65.238281 94.164062 Z M 65.238281 94.164062 " fill-opacity="1" fill-rule="nonzero"/><path fill="#cca650" d="M 53.191406 33.152344 L 25.730469 33.152344 C 25.03125 33.152344 24.460938 32.585938 24.460938 31.882812 C 24.460938 31.183594 25.03125 30.617188 25.730469 30.617188 L 53.191406 30.617188 C 53.890625 30.617188 54.457031 31.183594 54.457031 31.882812 C 54.457031 32.585938 53.894531 33.152344 53.191406 33.152344 Z M 53.191406 33.152344 " fill-opacity="1" fill-rule="nonzero"/><path fill="#cca650" d="M 54.851562 39.351562 L 25.730469 39.351562 C 25.03125 39.351562 24.460938 38.78125 24.460938 38.082031 C 24.460938 37.382812 25.03125 36.8125 25.730469 36.8125 L 54.847656 36.8125 C 55.550781 36.8125 56.117188 37.382812 56.117188 38.082031 C 56.117188 38.78125 55.550781 39.351562 54.851562 39.351562 Z M 54.851562 39.351562 " fill-opacity="1" fill-rule="nonzero"/><path fill="#cca650" d="M 56.511719 45.546875 L 25.730469 45.546875 C 25.03125 45.546875 24.460938 44.980469 24.460938 44.28125 C 24.460938 43.578125 25.03125 43.011719 25.730469 43.011719 L 56.511719 43.011719 C 57.210938 43.011719 57.78125 43.578125 57.78125 44.28125 C 57.78125 44.980469 57.210938 45.546875 56.511719 45.546875 Z M 56.511719 45.546875 " fill-opacity="1" fill-rule="nonzero"/><path fill="#cca650" d="M 58.171875 51.742188 L 25.730469 51.742188 C 25.03125 51.742188 24.460938 51.175781 24.460938 50.476562 C 24.460938 49.773438 25.03125 49.207031 25.730469 49.207031 L 58.171875 49.207031 C 58.871094 49.207031 59.441406 49.773438 59.441406 50.476562 C 59.441406 51.175781 58.875 51.742188 58.171875 51.742188 Z M 58.171875 51.742188 " fill-opacity="1" fill-rule="nonzero"/><path fill="#cca650" d="M 59.347656 57.941406 L 25.730469 57.941406 C 25.03125 57.941406 24.460938 57.375 24.460938 56.671875 C 24.460938 55.972656 25.03125 55.402344 25.730469 55.402344 L 59.34375 55.402344 C 60.042969 55.402344 60.613281 55.972656 60.613281 56.671875 C 60.617188 57.375 60.046875 57.941406 59.347656 57.941406 Z M 59.347656 57.941406 " fill-opacity="1" fill-rule="nonzero"/><path fill="#cca650" d="M 59.347656 64.140625 L 25.730469 64.140625 C 25.03125 64.140625 24.460938 63.570312 24.460938 62.871094 C 24.460938 62.167969 25.03125 61.601562 25.730469 61.601562 L 59.34375 61.601562 C 60.042969 61.601562 60.613281 62.167969 60.613281 62.871094 C 60.613281 63.570312 60.046875 64.140625 59.347656 64.140625 Z M 59.347656 64.140625 " fill-opacity="1" fill-rule="nonzero"/><path fill="#cca650" d="M 59.347656 70.335938 L 25.730469 70.335938 C 25.03125 70.335938 24.460938 69.769531 24.460938 69.066406 C 24.460938 68.367188 25.03125 67.800781 25.730469 67.800781 L 59.34375 67.800781 C 60.042969 67.800781 60.613281 68.367188 60.613281 69.066406 C 60.613281 69.769531 60.046875 70.335938 59.347656 70.335938 Z M 59.347656 70.335938 " fill-opacity="1" fill-rule="nonzero"/><path fill="#cca650" d="M 59.347656 76.53125 L 25.730469 76.53125 C 25.03125 76.53125 24.460938 75.964844 24.460938 75.261719 C 24.460938 74.5625 25.03125 73.992188 25.730469 73.992188 L 59.34375 73.992188 C 60.042969 73.992188 60.613281 74.5625 60.613281 75.261719 C 60.613281 75.964844 60.046875 76.53125 59.347656 76.53125 Z M 59.347656 76.53125 " fill-opacity="1" fill-rule="nonzero"/><path fill="#cca650" d="M 37.894531 82.730469 L 25.734375 82.730469 C 25.035156 82.730469 24.464844 82.160156 24.464844 81.460938 C 24.464844 80.761719 25.035156 80.191406 25.734375 80.191406 L 37.894531 80.191406 C 38.59375 80.191406 39.164062 80.761719 39.164062 81.460938 C 39.164062 82.160156 38.59375 82.730469 37.894531 82.730469 Z M 37.894531 82.730469 " fill-opacity="1" fill-rule="nonzero"/><path fill="#cca650" d="M 37.894531 88.925781 L 25.734375 88.925781 C 25.035156 88.925781 24.464844 88.359375 24.464844 87.660156 C 24.464844 86.957031 25.035156 86.390625 25.734375 86.390625 L 37.894531 86.390625 C 38.59375 86.390625 39.164062 86.957031 39.164062 87.660156 C 39.164062 88.359375 38.59375 88.925781 37.894531 88.925781 Z M 37.894531 88.925781 " fill-opacity="1" fill-rule="nonzero"/><path fill="#cca650" d="M 42.121094 89.128906 C 41.691406 89.128906 41.277344 88.914062 41.035156 88.523438 C 40.671875 87.925781 40.855469 87.144531 41.453125 86.777344 C 42.125 86.367188 42.699219 85.988281 43.1875 85.640625 C 41.984375 84.488281 41.515625 83.371094 41.761719 82.269531 C 42.050781 80.972656 43.402344 80.054688 45.125 79.988281 C 46.808594 79.921875 48.140625 80.6875 48.515625 81.933594 C 48.84375 83.011719 48.433594 84.183594 47.269531 85.46875 C 47.394531 85.542969 47.523438 85.617188 47.65625 85.691406 L 50.507812 82.003906 C 50.792969 81.636719 51.257812 81.453125 51.71875 81.527344 C 52.175781 81.601562 52.558594 81.921875 52.710938 82.363281 L 53.597656 84.890625 L 59.3125 84.753906 C 59.324219 84.753906 59.335938 84.753906 59.34375 84.753906 C 60.03125 84.753906 60.59375 85.300781 60.613281 85.992188 C 60.632812 86.691406 60.074219 87.273438 59.375 87.289062 L 52.730469 87.453125 C 52.71875 87.453125 52.710938 87.453125 52.699219 87.453125 C 52.160156 87.453125 51.679688 87.113281 51.503906 86.601562 L 51.082031 85.40625 L 49.003906 88.09375 C 48.628906 88.578125 47.964844 88.726562 47.421875 88.449219 C 46.625 88.039062 45.917969 87.636719 45.292969 87.242188 C 44.570312 87.789062 43.734375 88.355469 42.777344 88.941406 C 42.574219 89.070312 42.34375 89.128906 42.121094 89.128906 Z M 44.242188 82.832031 C 44.265625 82.921875 44.394531 83.324219 45.167969 84.007812 C 45.914062 83.253906 46.050781 82.820312 46.074219 82.691406 C 45.949219 82.605469 45.589844 82.492188 45.105469 82.535156 C 44.640625 82.574219 44.328125 82.738281 44.242188 82.832031 Z M 44.242188 82.832031 " fill-opacity="1" fill-rule="nonzero"/><path fill="#cca650" d="M 90.496094 85.203125 C 90.277344 85.203125 90.058594 85.144531 89.863281 85.035156 C 89.570312 84.867188 89.359375 84.589844 89.273438 84.261719 L 80.417969 51.21875 C 80.238281 50.539062 80.636719 49.84375 81.316406 49.664062 C 81.992188 49.484375 82.6875 49.886719 82.867188 50.5625 L 91.394531 82.382812 L 97.089844 80.855469 L 88.5625 49.039062 C 88.382812 48.359375 88.785156 47.664062 89.460938 47.484375 C 90.140625 47.300781 90.835938 47.707031 91.015625 48.382812 L 99.871094 81.425781 C 100.050781 82.105469 99.648438 82.800781 98.972656 82.980469 L 90.824219 85.164062 C 90.71875 85.1875 90.605469 85.203125 90.496094 85.203125 Z M 90.496094 85.203125 " fill-opacity="1" fill-rule="nonzero"/><path fill="#cca650" d="M 78.382812 53.03125 C 77.824219 53.03125 77.308594 52.660156 77.15625 52.089844 L 75.019531 44.105469 C 74.839844 43.425781 75.238281 42.730469 75.917969 42.550781 C 76.59375 42.367188 77.289062 42.773438 77.46875 43.449219 L 79.28125 50.210938 L 91.492188 46.9375 L 89.679688 40.175781 C 89.5 39.5 89.902344 38.804688 90.578125 38.621094 C 91.257812 38.441406 91.953125 38.84375 92.132812 39.519531 L 94.269531 47.507812 C 94.359375 47.832031 94.3125 48.179688 94.144531 48.46875 C 93.976562 48.757812 93.699219 48.976562 93.371094 49.0625 L 78.710938 52.988281 C 78.601562 53.019531 78.492188 53.03125 78.382812 53.03125 Z M 78.382812 53.03125 " fill-opacity="1" fill-rule="nonzero"/><path fill="#cca650" d="M 69.925781 46.738281 C 69.363281 46.738281 68.851562 46.367188 68.699219 45.796875 C 68.519531 45.121094 68.917969 44.425781 69.597656 44.246094 L 96.894531 36.929688 C 97.574219 36.746094 98.269531 37.152344 98.449219 37.828125 C 98.628906 38.507812 98.226562 39.203125 97.550781 39.382812 L 70.253906 46.695312 C 70.144531 46.722656 70.035156 46.738281 69.925781 46.738281 Z M 65.089844 28.6875 C 64.527344 28.6875 64.015625 28.316406 63.863281 27.746094 C 63.683594 27.070312 64.085938 26.375 64.761719 26.195312 L 92.0625 18.878906 C 92.738281 18.699219 93.433594 19.101562 93.613281 19.777344 C 93.792969 20.457031 93.394531 21.152344 92.714844 21.332031 L 65.417969 28.644531 C 65.308594 28.675781 65.199219 28.6875 65.089844 28.6875 Z M 65.089844 28.6875 " fill-opacity="1" fill-rule="nonzero"/><path fill="#cca650" d="M 97.628906 40.933594 C 97.066406 40.933594 96.554688 40.558594 96.402344 39.992188 L 90.757812 18.925781 C 90.671875 18.601562 90.71875 18.253906 90.886719 17.964844 C 91.054688 17.675781 91.328125 17.457031 91.65625 17.371094 L 97.765625 15.734375 C 98.445312 15.554688 99.140625 15.957031 99.320312 16.632812 C 99.5 17.3125 99.097656 18.007812 98.421875 18.1875 L 93.539062 19.496094 L 98.523438 38.109375 L 103.40625 36.800781 C 104.085938 36.617188 104.78125 37.019531 104.960938 37.699219 C 105.140625 38.375 104.742188 39.070312 104.0625 39.253906 L 97.953125 40.890625 C 97.847656 40.917969 97.738281 40.933594 97.628906 40.933594 Z M 97.628906 40.933594 " fill-opacity="1" fill-rule="nonzero"/><path fill="#cca650" d="M 64.21875 49.882812 C 63.660156 49.882812 63.144531 49.511719 62.992188 48.941406 C 62.8125 48.265625 63.214844 47.570312 63.890625 47.390625 L 68.773438 46.078125 L 63.789062 27.464844 L 58.90625 28.777344 C 58.226562 28.957031 57.53125 28.554688 57.351562 27.878906 C 57.171875 27.199219 57.574219 26.503906 58.25 26.324219 L 64.359375 24.6875 C 64.683594 24.601562 65.03125 24.644531 65.320312 24.8125 C 65.613281 24.980469 65.824219 25.257812 65.914062 25.585938 L 71.558594 46.648438 C 71.644531 46.976562 71.597656 47.324219 71.429688 47.613281 C 71.261719 47.902344 70.984375 48.117188 70.660156 48.203125 L 64.550781 49.839844 C 64.441406 49.867188 64.328125 49.882812 64.21875 49.882812 Z M 64.21875 49.882812 " fill-opacity="1" fill-rule="nonzero"/><path fill="#cca650" d="M 58.867188 54.335938 C 58.304688 54.335938 57.792969 53.964844 57.640625 53.394531 L 50.488281 26.695312 C 50.402344 26.371094 50.445312 26.023438 50.613281 25.734375 C 50.78125 25.441406 51.058594 25.226562 51.386719 25.140625 L 57.492188 23.503906 C 58.171875 23.324219 58.867188 23.726562 59.046875 24.402344 L 66.203125 51.105469 C 66.289062 51.429688 66.242188 51.777344 66.074219 52.066406 C 65.90625 52.355469 65.628906 52.570312 65.304688 52.65625 L 59.195312 54.292969 C 59.085938 54.324219 58.976562 54.335938 58.867188 54.335938 Z M 53.265625 27.265625 L 59.761719 51.515625 L 63.421875 50.535156 L 56.921875 26.285156 Z M 53.265625 27.265625 " fill-opacity="1" fill-rule="nonzero"/><g clip-path="url(#c91f0b4ba0)"><path fill="#cca650" d="M 104.496094 42.113281 C 104.273438 42.113281 104.054688 42.054688 103.859375 41.941406 C 103.566406 41.773438 103.355469 41.5 103.269531 41.171875 L 96.113281 14.472656 C 95.933594 13.792969 96.335938 13.097656 97.011719 12.917969 L 103.121094 11.28125 C 103.445312 11.195312 103.792969 11.242188 104.082031 11.410156 C 104.375 11.574219 104.589844 11.851562 104.675781 12.179688 L 111.828125 38.882812 C 112.007812 39.558594 111.609375 40.253906 110.929688 40.433594 L 104.820312 42.070312 C 104.714844 42.101562 104.601562 42.113281 104.496094 42.113281 Z M 98.894531 15.039062 L 105.390625 39.289062 L 109.046875 38.3125 L 102.550781 14.058594 Z M 98.894531 15.039062 " fill-opacity="1" fill-rule="nonzero"/></g></svg>