<svg xmlns="http://www.w3.org/2000/svg" xmlns:xlink="http://www.w3.org/1999/xlink" width="300" zoomAndPan="magnify" viewBox="0 0 224.87999 225" height="300" preserveAspectRatio="xMidYMid meet" version="1.0"><defs><clipPath id="3d377ca127"><path d="M 7 118 L 224.761719 118 L 224.761719 219 L 7 219 Z M 7 118 " clip-rule="nonzero"/></clipPath></defs><path fill="#cca650" d="M 129.53125 78.507812 L 98.636719 113.257812 L 91.671875 107.070312 C 88.636719 104.367188 84.679688 103.023438 80.636719 103.253906 C 76.5625 103.496094 72.84375 105.300781 70.160156 108.328125 C 64.574219 114.609375 65.140625 124.261719 71.421875 129.84375 L 90.722656 147.015625 C 94.097656 150.007812 96.882812 151.375 99.671875 151.375 C 99.875 151.375 100.078125 151.367188 100.28125 151.355469 C 104.511719 151.054688 107.285156 147.785156 110.800781 143.644531 C 111.59375 142.703125 112.453125 141.691406 113.40625 140.625 L 151.359375 97.921875 C 156.707031 91.898438 156.160156 82.644531 150.144531 77.296875 L 150.144531 77.292969 C 144.121094 71.949219 134.878906 72.496094 129.53125 78.507812 Z M 145.96875 93.136719 L 108.019531 135.828125 C 107.03125 136.941406 106.132812 138 105.300781 138.980469 C 103.078125 141.601562 100.976562 144.078125 99.773438 144.164062 C 99.378906 144.238281 98.1875 144 95.511719 141.625 L 76.207031 124.457031 C 72.898438 121.515625 72.601562 116.425781 75.546875 113.113281 C 76.957031 111.523438 78.914062 110.578125 81.0625 110.453125 C 81.226562 110.441406 81.390625 110.433594 81.558594 110.433594 C 83.53125 110.433594 85.40625 111.140625 86.886719 112.453125 L 96.542969 121.039062 C 98.027344 122.359375 100.304688 122.226562 101.628906 120.738281 L 134.914062 83.296875 C 137.628906 80.25 142.304688 79.980469 145.355469 82.679688 C 148.40625 85.390625 148.679688 90.082031 145.96875 93.136719 Z M 145.96875 93.136719 " fill-opacity="1" fill-rule="nonzero"/><g clip-path="url(#3d377ca127)"><path fill="#cca650" d="M 221.070312 139.027344 L 203.0625 123.015625 C 196.84375 117.488281 192.859375 117.496094 186.644531 123.015625 L 168.519531 139.136719 C 165.730469 141.855469 164.800781 146.003906 166.210938 149.460938 C 167.691406 153.101562 171.332031 155.273438 175.953125 155.273438 L 178.257812 155.273438 C 163.636719 178.375 138.277344 192.503906 110.675781 192.503906 C 75.558594 192.503906 44.03125 169.019531 34.015625 135.445312 C 30.722656 123.742188 22.816406 120.199219 16.414062 121.882812 C 10.652344 123.402344 5.828125 129.578125 7.71875 137.265625 C 19.160156 185.027344 61.496094 218.382812 110.675781 218.382812 C 152.808594 218.382812 190.503906 193.671875 207.480469 155.273438 L 213.765625 155.273438 C 218.382812 155.273438 222.023438 153.101562 223.5 149.464844 C 224.910156 146.007812 223.980469 141.855469 221.070312 139.027344 Z M 216.824219 146.746094 C 216.34375 147.9375 214.527344 148.066406 213.765625 148.066406 L 205.15625 148.066406 C 205.15625 148.066406 205.15625 148.066406 205.152344 148.066406 C 204.683594 148.070312 204.222656 148.164062 203.792969 148.339844 C 202.898438 148.710938 202.1875 149.425781 201.824219 150.324219 C 186.460938 187.292969 150.6875 211.175781 110.675781 211.175781 C 64.84375 211.175781 25.386719 180.09375 14.71875 135.5625 C 13.855469 132.039062 15.894531 129.472656 18.253906 128.855469 C 21.867188 127.894531 25.347656 131.253906 27.09375 137.457031 C 38.03125 174.109375 72.398438 199.710938 110.675781 199.710938 C 143.003906 199.710938 172.527344 181.953125 187.71875 153.363281 C 187.726562 153.347656 187.726562 153.332031 187.734375 153.316406 C 187.925781 152.949219 188.03125 152.550781 188.089844 152.125 C 188.097656 152.0625 188.121094 152.007812 188.125 151.949219 C 188.132812 151.851562 188.179688 151.769531 188.179688 151.671875 C 188.179688 151.359375 188.078125 151.078125 188.003906 150.789062 C 187.984375 150.714844 187.980469 150.640625 187.957031 150.566406 C 187.835938 150.199219 187.652344 149.875 187.429688 149.570312 C 187.375 149.5 187.339844 149.421875 187.28125 149.351562 C 187.039062 149.066406 186.75 148.847656 186.429688 148.652344 C 186.355469 148.605469 186.308594 148.53125 186.230469 148.488281 C 186.207031 148.476562 186.175781 148.476562 186.152344 148.464844 C 185.894531 148.335938 185.609375 148.28125 185.320312 148.214844 C 185.113281 148.167969 184.914062 148.101562 184.703125 148.09375 C 184.660156 148.089844 184.621094 148.066406 184.574219 148.066406 L 175.953125 148.066406 C 175.195312 148.066406 173.371094 147.9375 172.886719 146.746094 C 172.574219 145.988281 172.851562 144.980469 173.425781 144.410156 L 191.433594 128.402344 C 194.839844 125.371094 194.84375 125.347656 198.277344 128.402344 L 216.160156 144.296875 C 216.859375 144.980469 217.132812 145.992188 216.824219 146.746094 Z M 216.824219 146.746094 " fill-opacity="1" fill-rule="nonzero"/></g><path fill="#cca650" d="M 30.027344 106.125 C 32.574219 106.125 35.125 104.742188 38.234375 101.980469 L 56.363281 85.863281 C 59.148438 83.140625 60.078125 78.988281 58.671875 75.527344 C 57.1875 71.886719 53.546875 69.710938 48.925781 69.710938 L 46.621094 69.710938 C 61.242188 46.617188 86.597656 32.492188 114.203125 32.492188 C 149.3125 32.492188 180.84375 55.976562 190.863281 89.535156 C 193.648438 99.441406 199.746094 103.507812 205.421875 103.507812 C 206.457031 103.507812 207.476562 103.371094 208.460938 103.109375 C 214.222656 101.59375 219.050781 95.414062 217.164062 87.71875 C 205.722656 39.96875 163.382812 6.617188 114.203125 6.617188 C 72.074219 6.617188 34.378906 31.320312 17.398438 69.710938 L 11.125 69.710938 C 6.503906 69.710938 2.859375 71.886719 1.378906 75.527344 C -0.0273438 78.988281 0.898438 83.140625 3.8125 85.972656 L 21.816406 101.980469 C 24.921875 104.742188 27.472656 106.125 30.027344 106.125 Z M 8.054688 78.242188 C 8.542969 77.050781 10.363281 76.917969 11.125 76.917969 L 19.722656 76.917969 C 19.722656 76.917969 19.726562 76.917969 19.730469 76.917969 C 20.199219 76.914062 20.660156 76.820312 21.089844 76.644531 C 21.984375 76.273438 22.691406 75.558594 23.054688 74.660156 C 38.417969 37.699219 74.191406 13.824219 114.203125 13.824219 C 160.035156 13.824219 199.492188 44.902344 210.160156 89.417969 C 211.023438 92.953125 208.988281 95.519531 206.625 96.140625 C 203.019531 97.09375 199.535156 93.742188 197.785156 87.53125 C 186.847656 50.882812 152.476562 25.285156 114.203125 25.285156 C 81.871094 25.285156 52.351562 43.042969 37.160156 71.621094 C 37.152344 71.636719 37.15625 71.652344 37.148438 71.667969 C 36.953125 72.035156 36.847656 72.433594 36.792969 72.863281 C 36.785156 72.921875 36.761719 72.976562 36.757812 73.035156 C 36.75 73.132812 36.699219 73.214844 36.699219 73.316406 C 36.699219 73.625 36.804688 73.90625 36.878906 74.195312 C 36.898438 74.269531 36.898438 74.347656 36.921875 74.421875 C 37.042969 74.789062 37.226562 75.109375 37.449219 75.410156 C 37.503906 75.484375 37.539062 75.566406 37.601562 75.632812 C 37.84375 75.917969 38.128906 76.132812 38.449219 76.332031 C 38.523438 76.378906 38.570312 76.453125 38.648438 76.496094 C 38.675781 76.507812 38.703125 76.507812 38.730469 76.519531 C 38.988281 76.648438 39.273438 76.707031 39.566406 76.769531 C 39.769531 76.816406 39.964844 76.882812 40.171875 76.890625 C 40.21875 76.894531 40.257812 76.917969 40.304688 76.917969 L 48.925781 76.917969 C 49.6875 76.917969 51.507812 77.046875 51.996094 78.242188 C 52.304688 79.003906 52.03125 80.015625 51.453125 80.589844 L 33.449219 96.59375 C 30.019531 99.644531 30.015625 99.632812 26.601562 96.59375 L 8.722656 80.703125 C 8.019531 80.015625 7.746094 79.007812 8.054688 78.242188 Z M 8.054688 78.242188 " fill-opacity="1" fill-rule="nonzero"/></svg>