<svg xmlns="http://www.w3.org/2000/svg" xmlns:xlink="http://www.w3.org/1999/xlink" width="150" zoomAndPan="magnify" viewBox="0 0 112.5 112.499997" height="150" preserveAspectRatio="xMidYMid meet" version="1.0"><path fill="#cca650" d="M 34.324219 56.367188 L 22.332031 56.367188 C 21.175781 56.367188 20.238281 57.277344 20.238281 58.402344 L 20.238281 81.261719 C 20.238281 82.382812 21.175781 83.292969 22.332031 83.292969 L 34.324219 83.292969 C 35.480469 83.292969 36.417969 82.386719 36.417969 81.261719 L 36.417969 58.402344 C 36.417969 57.277344 35.480469 56.367188 34.324219 56.367188 Z M 32.234375 79.226562 L 24.425781 79.226562 L 24.425781 60.433594 L 32.234375 60.433594 Z M 32.234375 79.226562 " fill-opacity="1" fill-rule="nonzero"/><path fill="#cca650" d="M 84.402344 83.050781 C 85.558594 83.050781 86.496094 82.140625 86.496094 81.015625 L 86.496094 58.164062 C 86.496094 57.039062 85.558594 56.128906 84.402344 56.128906 L 72.410156 56.128906 C 71.253906 56.128906 70.316406 57.039062 70.316406 58.164062 L 70.316406 81.015625 C 70.316406 82.136719 71.253906 83.050781 72.410156 83.050781 Z M 74.5 60.195312 L 82.308594 60.195312 L 82.308594 78.984375 L 74.5 78.984375 Z M 74.5 60.195312 " fill-opacity="1" fill-rule="nonzero"/><path fill="#cca650" d="M 56.285156 33.441406 C 55.335938 33.121094 54.347656 32.957031 53.355469 32.957031 C 49.597656 32.957031 46.238281 35.273438 45 38.71875 C 44.21875 40.882812 44.355469 43.21875 45.378906 45.289062 C 46.40625 47.355469 48.199219 48.917969 50.4375 49.679688 C 51.378906 49.996094 52.367188 50.160156 53.359375 50.160156 C 57.113281 50.160156 60.476562 47.847656 61.71875 44.402344 C 62.5 42.230469 62.367188 39.898438 61.339844 37.828125 C 60.3125 35.753906 58.515625 34.199219 56.285156 33.441406 Z M 57.769531 43.054688 C 57.109375 44.871094 55.339844 46.09375 53.355469 46.09375 C 52.835938 46.09375 52.316406 46.007812 51.820312 45.839844 C 50.640625 45.4375 49.695312 44.613281 49.152344 43.523438 C 48.609375 42.433594 48.542969 41.203125 48.953125 40.058594 C 49.605469 38.242188 51.375 37.023438 53.359375 37.023438 C 53.882812 37.023438 54.402344 37.105469 54.902344 37.28125 C 56.082031 37.675781 57.027344 38.5 57.566406 39.589844 C 58.109375 40.679688 58.179688 41.914062 57.769531 43.054688 Z M 57.769531 43.054688 " fill-opacity="1" fill-rule="nonzero"/><path fill="#cca650" d="M 103.042969 94.300781 C 101.785156 90.746094 99.074219 87.996094 95.710938 86.6875 L 95.710938 46.84375 C 96.671875 47.128906 97.625 47.273438 98.5625 47.273438 C 102.066406 47.273438 104.941406 45.207031 105.882812 42.011719 C 106.898438 38.550781 105.289062 34.941406 101.777344 32.816406 L 92.550781 27.242188 L 92.550781 14.554688 L 92.730469 14.554688 C 93.886719 14.554688 94.820312 13.644531 94.820312 12.523438 L 94.820312 4.191406 C 94.820312 3.070312 93.886719 2.15625 92.730469 2.15625 L 75.691406 2.15625 C 74.535156 2.15625 73.597656 3.066406 73.597656 4.191406 L 73.597656 12.523438 C 73.597656 13.644531 74.535156 14.554688 75.691406 14.554688 L 75.871094 14.554688 L 75.871094 17.15625 L 61.65625 8.5625 C 58.15625 6.359375 55.933594 5.238281 53.496094 5.238281 C 51.664062 5.238281 49.953125 5.859375 47.582031 7.386719 L 4.941406 32.824219 C 1.476562 34.886719 -0.046875 38.316406 0.964844 41.773438 C 1.960938 45.203125 5.160156 47.503906 8.925781 47.503906 C 9.808594 47.503906 10.699219 47.375 11.59375 47.132812 L 11.59375 95.09375 L 6.929688 95.09375 C 5.773438 95.09375 4.835938 96.003906 4.835938 97.125 L 4.835938 107.8125 C 4.835938 108.933594 5.773438 109.84375 6.929688 109.84375 L 109.804688 109.84375 C 110.871094 109.84375 111.769531 109.0625 111.882812 108.03125 C 111.9375 107.558594 111.964844 107.070312 111.964844 106.582031 C 111.964844 100.890625 108.28125 95.921875 103.042969 94.300781 Z M 77.785156 6.222656 L 90.636719 6.222656 L 90.636719 10.488281 L 77.785156 10.488281 Z M 88.371094 14.554688 L 88.371094 24.707031 L 80.058594 19.683594 L 80.058594 14.554688 Z M 8.925781 43.4375 C 6.765625 43.4375 5.390625 42.046875 4.988281 40.667969 C 4.507812 39.011719 5.308594 37.375 7.128906 36.289062 L 49.804688 10.832031 C 49.828125 10.816406 49.847656 10.804688 49.871094 10.792969 C 51.503906 9.734375 52.554688 9.304688 53.5 9.304688 C 54.875 9.304688 56.703125 10.289062 59.394531 11.984375 C 59.40625 11.992188 59.417969 12 59.429688 12.003906 L 99.5625 36.269531 C 101.851562 37.652344 102.25 39.566406 101.855469 40.894531 C 101.527344 42.015625 100.488281 43.210938 98.5625 43.210938 C 97.421875 43.210938 96.105469 42.78125 94.761719 41.964844 L 56.066406 18.449219 L 55.296875 17.980469 C 55.292969 17.980469 55.289062 17.976562 55.28125 17.976562 L 54.667969 17.597656 C 53.980469 17.183594 53.113281 17.1875 52.429688 17.609375 L 12.59375 42.296875 L 12.585938 42.304688 L 12.582031 42.304688 C 11.304688 43.054688 10.078125 43.4375 8.925781 43.4375 Z M 66.960938 105.730469 C 66.960938 105.746094 66.960938 105.761719 66.960938 105.777344 L 9.023438 105.777344 L 9.023438 99.160156 L 68.484375 99.160156 C 66.984375 101.730469 66.953125 105.625 66.960938 105.730469 Z M 45.070312 95.09375 L 45.070312 60.195312 L 62.191406 60.195312 L 62.191406 95.09375 Z M 66.375 95.09375 L 66.375 58.164062 C 66.375 57.039062 65.4375 56.128906 64.28125 56.128906 L 42.980469 56.128906 C 41.824219 56.128906 40.882812 57.039062 40.882812 58.164062 L 40.882812 95.09375 L 15.78125 95.09375 L 15.78125 45.164062 L 53.652344 22.097656 L 91.527344 44.847656 L 91.527344 85.84375 C 91.421875 85.84375 91.320312 85.839844 91.214844 85.839844 C 86.824219 85.839844 82.769531 88.195312 80.496094 91.957031 C 75.640625 91.679688 73.015625 93.476562 71.210938 95.09375 Z M 71.171875 105.777344 C 71.160156 105.6875 71.53125 95.269531 81.222656 96.167969 C 82.222656 96.261719 83.199219 95.886719 83.59375 94.992188 C 84.976562 91.902344 87.964844 89.90625 91.214844 89.90625 C 91.363281 89.90625 91.507812 89.910156 91.652344 89.917969 C 91.6875 89.921875 91.722656 89.925781 91.753906 89.925781 C 91.882812 89.933594 92.003906 89.945312 92.132812 89.957031 C 92.152344 89.960938 92.171875 89.964844 92.1875 89.964844 C 92.5 90.003906 92.808594 90.058594 93.113281 90.132812 C 93.113281 90.132812 93.113281 90.132812 93.113281 90.136719 C 96.101562 90.855469 98.535156 93.253906 99.332031 96.457031 C 99.523438 97.21875 100.15625 97.8125 100.953125 97.96875 C 104.652344 98.699219 107.40625 101.921875 107.746094 105.78125 L 71.171875 105.78125 Z M 71.171875 105.777344 " fill-opacity="1" fill-rule="nonzero"/></svg>