<svg xmlns="http://www.w3.org/2000/svg" xmlns:xlink="http://www.w3.org/1999/xlink" width="300" zoomAndPan="magnify" viewBox="0 0 224.87999 225" height="300" preserveAspectRatio="xMidYMid meet" version="1.0"><defs><clipPath id="aaaafe5b85"><path d="M 22.773438 115.585938 L 116.144531 115.585938 L 116.144531 197.332031 L 22.773438 197.332031 Z M 22.773438 115.585938 " clip-rule="nonzero"/></clipPath><clipPath id="e76a79c5aa"><path d="M 156.65625 27.652344 L 224.761719 27.652344 L 224.761719 126.457031 L 156.65625 126.457031 Z M 156.65625 27.652344 " clip-rule="nonzero"/></clipPath></defs><path fill="#cca650" d="M 77.722656 51.246094 C 68.71875 51.246094 65.949219 51.484375 64.539062 51.699219 C 62.171875 52.054688 60.125 53.53125 59.035156 55.664062 L 30.386719 111.984375 C 29.027344 114.648438 29.40625 117.867188 31.34375 120.144531 C 33.214844 122.347656 33.714844 122.886719 34.257812 123.460938 C 34.542969 123.761719 34.867188 124.105469 36.566406 126.101562 C 36.671875 126.226562 36.78125 126.347656 36.898438 126.464844 C 37.023438 126.59375 37.140625 126.710938 37.261719 126.839844 C 37.457031 126.5 37.667969 126.171875 37.898438 125.859375 C 38.246094 125.394531 38.683594 124.976562 39.167969 124.601562 C 39.203125 124.515625 39.234375 124.425781 39.277344 124.339844 C 39.640625 123.75 40.003906 123.15625 40.371094 122.566406 C 40.851562 121.976562 41.398438 121.472656 41.996094 121.050781 C 38.628906 117.09375 40.660156 119.660156 36.988281 115.34375 L 65.644531 59.027344 C 67.496094 58.746094 72.234375 58.65625 77.722656 58.65625 C 79.257812 58.65625 80.851562 58.664062 82.457031 58.675781 C 82.871094 58.214844 83.328125 57.800781 83.820312 57.445312 C 84.386719 54.824219 86.347656 52.300781 88.828125 51.335938 C 85.1875 51.285156 81.289062 51.246094 77.722656 51.246094 " fill-opacity="1" fill-rule="nonzero"/><path fill="#cca650" d="M 196.722656 138.046875 C 196.121094 132.664062 192.878906 129.445312 190.492188 127.492188 C 188.746094 126.0625 187.050781 124.5625 185.253906 122.976562 C 184.429688 122.25 183.609375 121.523438 182.78125 120.804688 C 181.441406 119.636719 180.101562 118.476562 178.761719 117.3125 C 176.347656 115.21875 173.9375 113.125 171.535156 111.023438 C 169.984375 109.667969 168.445312 108.308594 166.902344 106.949219 C 165.246094 105.484375 163.527344 103.964844 161.820312 102.480469 C 160.640625 101.449219 159.445312 100.429688 158.289062 99.445312 C 157.292969 98.597656 156.261719 97.71875 155.269531 96.855469 C 152.367188 94.335938 149.417969 91.753906 146.566406 89.257812 L 144.84375 87.753906 C 141.925781 85.203125 139.011719 82.648438 136.097656 80.089844 C 135.5 79.5625 131.636719 75.96875 126.609375 71.269531 C 126.351562 71.539062 126.082031 71.792969 125.800781 72.019531 C 122.949219 74.3125 119.480469 73.875 116.707031 72.152344 C 123.460938 78.472656 130.304688 84.867188 131.214844 85.664062 C 134.128906 88.222656 137.042969 90.777344 139.964844 93.332031 C 143.445312 96.375 146.921875 99.421875 150.414062 102.453125 C 152.578125 104.332031 154.785156 106.175781 156.949219 108.0625 C 160.195312 110.894531 163.410156 113.765625 166.65625 116.601562 C 170.402344 119.875 174.164062 123.128906 177.917969 126.394531 C 180.539062 128.675781 183.109375 131.023438 185.796875 133.226562 C 187.644531 134.738281 189.082031 136.390625 189.359375 138.871094 C 189.546875 140.542969 189.574219 142.175781 188.628906 143.621094 C 187.664062 145.089844 186.464844 146.339844 185.007812 147.378906 C 183.796875 148.25 182.011719 148.703125 180.214844 148.703125 C 178.335938 148.703125 176.4375 148.207031 175.144531 147.171875 C 172.550781 145.097656 169.773438 143.25 167.0625 141.320312 C 163.113281 138.503906 159.148438 135.710938 155.199219 132.894531 C 150.589844 129.605469 145.996094 126.296875 141.390625 123 C 138.242188 120.746094 135.070312 118.519531 131.9375 116.230469 C 130.707031 115.328125 129.429688 114.695312 127.886719 114.496094 C 127.695312 114.472656 127.503906 114.460938 127.320312 114.460938 C 125.09375 114.460938 123.382812 116.199219 123.605469 118.496094 C 123.773438 120.238281 124.65625 121.585938 126.03125 122.585938 C 129.492188 125.101562 132.988281 127.578125 136.472656 130.066406 C 139.414062 132.167969 142.375 134.246094 145.308594 136.355469 C 149.742188 139.542969 154.148438 142.757812 158.582031 145.941406 C 161.9375 148.351562 165.300781 150.75 168.6875 153.113281 C 171.972656 155.40625 172.257812 158.839844 170.847656 161.816406 C 169.570312 164.515625 167.332031 165.773438 164.945312 165.773438 C 163.589844 165.773438 162.191406 165.371094 160.890625 164.597656 C 157.003906 162.28125 153.457031 159.398438 149.753906 156.769531 C 144.984375 153.386719 140.207031 150.015625 135.4375 146.625 C 130.976562 143.449219 126.507812 140.28125 122.078125 137.058594 C 121.042969 136.300781 119.984375 135.882812 118.75 135.882812 C 118.582031 135.882812 118.410156 135.890625 118.234375 135.90625 C 116.316406 136.078125 115.253906 136.824219 114.722656 138.558594 C 114.179688 140.308594 114.71875 142.054688 116.144531 143.09375 C 123.152344 148.1875 130.164062 153.273438 137.179688 158.359375 C 141.527344 161.515625 145.902344 164.632812 150.21875 167.828125 C 151.621094 168.867188 152.292969 170.402344 152.402344 172.148438 C 152.527344 174.117188 151.8125 175.816406 150.605469 177.3125 C 149.152344 179.105469 147.316406 180.050781 145.378906 180.050781 C 144.171875 180.050781 142.925781 179.683594 141.707031 178.921875 C 139.808594 177.738281 138.011719 176.390625 136.183594 175.097656 C 134.238281 173.722656 132.316406 172.308594 130.363281 170.945312 C 127.535156 168.972656 124.675781 167.050781 121.855469 165.074219 C 117.996094 162.367188 114.167969 159.617188 110.304688 156.914062 C 109.488281 156.339844 108.710938 156.058594 107.96875 156.058594 C 106.988281 156.058594 106.066406 156.554688 105.1875 157.53125 C 103.671875 159.214844 103.699219 161.667969 105.300781 162.925781 C 107.261719 164.472656 109.253906 165.96875 111.253906 167.46875 C 116.152344 171.136719 121.058594 174.792969 125.957031 178.464844 C 126.90625 179.179688 127.050781 179.882812 126.558594 180.976562 C 125.191406 184.039062 122.503906 185.507812 119.597656 185.507812 C 118.765625 185.507812 117.910156 185.386719 117.0625 185.148438 C 115.3125 184.652344 113.75 183.503906 112.097656 182.660156 C 112.015625 182.617188 111.523438 182.242188 110.761719 181.644531 C 110.773438 181.710938 110.789062 181.773438 110.800781 181.84375 C 111.125 183.996094 110.285156 186.132812 109.03125 187.828125 C 108.75 188.203125 108.410156 188.546875 108.035156 188.863281 C 108.3125 189.046875 108.492188 189.140625 108.730469 189.261719 C 109.085938 189.441406 109.507812 189.683594 109.953125 189.945312 C 111.292969 190.71875 112.960938 191.683594 115.039062 192.277344 C 116.542969 192.703125 118.078125 192.917969 119.597656 192.917969 C 125.605469 192.917969 130.867188 189.503906 133.324219 184.007812 C 133.542969 183.519531 133.71875 183.035156 133.859375 182.546875 C 135.105469 183.433594 136.390625 184.34375 137.785156 185.207031 C 140.140625 186.683594 142.769531 187.460938 145.378906 187.460938 C 149.601562 187.460938 153.5 185.511719 156.367188 181.972656 C 158.714844 179.070312 159.902344 175.722656 159.824219 172.261719 C 161.488281 172.871094 163.21875 173.183594 164.945312 173.183594 C 170.402344 173.183594 175.117188 170.121094 177.546875 164.988281 C 178.949219 162.019531 179.351562 158.933594 178.839844 156.0625 C 179.292969 156.097656 179.753906 156.113281 180.214844 156.113281 C 183.648438 156.113281 186.882812 155.152344 189.324219 153.402344 C 191.511719 151.839844 193.363281 149.914062 194.824219 147.683594 C 197.078125 144.242188 197.023438 140.726562 196.722656 138.046875 " fill-opacity="1" fill-rule="nonzero"/><path fill="#cca650" d="M 119.363281 40.820312 C 115.472656 40.820312 111.628906 41.351562 107.804688 42.136719 C 102.601562 43.210938 97.714844 44.066406 93.148438 46.777344 C 92.675781 47.054688 81.453125 52.109375 74.335938 60.054688 C 72.738281 62.878906 71.160156 65.714844 69.613281 68.566406 C 69.355469 69.035156 69.179688 69.585938 69.121094 70.117188 C 68.796875 73.085938 68.550781 76.0625 68.21875 79.027344 C 67.925781 81.625 67.828125 84.28125 67.15625 86.78125 C 66.402344 89.589844 65.160156 92.277344 64.015625 94.96875 C 63.257812 96.75 63.246094 98.453125 64.207031 100.089844 C 65.984375 103.125 68.738281 104.757812 72.183594 105.113281 C 73.125 105.210938 74.066406 105.261719 75.011719 105.261719 C 77.515625 105.261719 80.003906 104.90625 82.402344 104.132812 C 85.5625 103.117188 88.285156 101.238281 90.695312 98.949219 C 93.148438 96.617188 95.183594 93.957031 96.710938 90.929688 C 97.890625 88.59375 98.734375 86.15625 99.167969 83.554688 C 99.414062 82.082031 99.472656 80.507812 100.539062 79.273438 C 100.976562 78.773438 101.34375 78.21875 101.777344 77.722656 C 103.691406 75.53125 106.089844 73.96875 108.921875 73.535156 C 109.875 73.386719 110.828125 73.3125 111.78125 73.3125 C 113.96875 73.3125 116.148438 73.703125 118.253906 74.492188 C 119.355469 74.902344 120.417969 75.355469 121.257812 76.265625 C 122.679688 77.800781 124.132812 79.320312 125.664062 80.753906 C 127.464844 82.445312 129.355469 84.035156 131.214844 85.664062 C 134.128906 88.222656 137.042969 90.777344 139.964844 93.332031 C 143.445312 96.375 146.921875 99.421875 150.414062 102.453125 C 152.578125 104.332031 154.785156 106.175781 156.949219 108.0625 C 160.195312 110.894531 163.410156 113.765625 166.65625 116.601562 C 170.402344 119.875 174.164062 123.128906 177.917969 126.394531 C 180.539062 128.675781 183.109375 131.023438 185.796875 133.226562 C 185.863281 133.28125 185.941406 133.304688 186.027344 133.304688 C 186.960938 133.304688 189.109375 130.28125 191.617188 126.707031 C 193.667969 123.792969 195.84375 119.777344 197.261719 116.507812 C 197.453125 116.070312 197.476562 115.40625 197.28125 114.980469 C 195.71875 111.554688 194.09375 108.15625 192.46875 104.761719 C 189.910156 99.402344 187.324219 94.054688 184.761719 88.695312 C 182.101562 83.128906 179.460938 77.558594 176.804688 71.992188 C 175.15625 68.53125 173.511719 65.0625 171.851562 61.605469 C 169.925781 57.597656 167.984375 53.597656 166.046875 49.597656 C 165.777344 49.039062 165.398438 48.808594 164.710938 48.761719 C 160.925781 48.5 157.128906 48.296875 153.378906 47.773438 C 150.804688 47.417969 148.285156 46.617188 145.761719 45.9375 C 142.210938 44.984375 138.6875 43.910156 135.132812 42.976562 C 130.417969 41.734375 125.609375 41.003906 120.738281 40.84375 C 120.28125 40.828125 119.820312 40.820312 119.363281 40.820312 Z M 119.363281 47.738281 C 119.75 47.738281 120.136719 47.746094 120.511719 47.757812 C 124.773438 47.898438 129.101562 48.539062 133.371094 49.664062 C 135.210938 50.148438 137.101562 50.6875 138.933594 51.210938 C 140.574219 51.675781 142.269531 52.160156 143.96875 52.617188 C 144.484375 52.753906 145 52.898438 145.515625 53.042969 C 147.691406 53.652344 149.941406 54.277344 152.425781 54.625 C 155.394531 55.035156 158.335938 55.261719 161.199219 55.457031 L 161.464844 56.007812 C 162.851562 58.871094 164.238281 61.734375 165.613281 64.601562 C 166.902344 67.277344 168.175781 69.953125 169.449219 72.628906 L 170.5625 74.96875 C 171.492188 76.921875 172.421875 78.875 173.355469 80.828125 C 175.074219 84.445312 176.792969 88.0625 178.523438 91.675781 C 179.808594 94.367188 181.101562 97.054688 182.394531 99.746094 C 183.675781 102.410156 184.957031 105.074219 186.230469 107.742188 C 187.476562 110.351562 188.757812 113.027344 190.007812 115.726562 C 188.789062 118.238281 187.292969 120.835938 185.957031 122.730469 C 185.757812 123.015625 185.535156 123.335938 185.296875 123.671875 C 185.171875 123.566406 185.050781 123.457031 184.925781 123.34375 C 184.105469 122.621094 183.285156 121.894531 182.457031 121.179688 C 181.117188 120.011719 179.777344 118.847656 178.4375 117.683594 C 176.027344 115.589844 173.613281 113.496094 171.207031 111.390625 C 169.660156 110.039062 168.117188 108.679688 166.578125 107.320312 C 164.917969 105.855469 163.199219 104.339844 161.496094 102.851562 C 160.316406 101.824219 159.125 100.804688 157.96875 99.820312 C 156.972656 98.96875 155.941406 98.09375 154.945312 97.230469 C 152.039062 94.703125 149.085938 92.121094 146.230469 89.625 L 144.519531 88.125 C 141.601562 85.574219 138.6875 83.019531 135.773438 80.464844 C 135.238281 79.992188 134.695312 79.523438 134.15625 79.054688 C 132.832031 77.910156 131.585938 76.824219 130.394531 75.707031 C 128.890625 74.300781 127.433594 72.753906 126.335938 71.566406 C 124.300781 69.371094 121.855469 68.453125 120.679688 68.011719 C 117.820312 66.941406 114.824219 66.398438 111.78125 66.398438 C 110.484375 66.398438 109.171875 66.496094 107.875 66.695312 C 103.609375 67.347656 99.699219 69.589844 96.566406 73.171875 C 96.195312 73.597656 95.890625 73.996094 95.648438 74.316406 C 95.527344 74.480469 95.386719 74.660156 95.320312 74.738281 C 93.09375 77.304688 92.675781 80.148438 92.433594 81.84375 C 92.40625 82.035156 92.378906 82.226562 92.34375 82.414062 C 92.039062 84.238281 91.449219 86.007812 90.535156 87.816406 C 89.414062 90.039062 87.863281 92.097656 85.933594 93.933594 C 84.007812 95.761719 82.15625 96.945312 80.285156 97.546875 C 78.644531 98.078125 76.867188 98.34375 75.011719 98.34375 C 74.316406 98.34375 73.605469 98.308594 72.890625 98.234375 C 71.722656 98.113281 71.058594 97.738281 70.585938 97.183594 C 70.699219 96.929688 70.808594 96.671875 70.917969 96.414062 C 71.976562 93.957031 73.074219 91.417969 73.835938 88.578125 C 74.492188 86.136719 74.714844 83.746094 74.910156 81.636719 C 74.96875 80.996094 75.023438 80.386719 75.089844 79.796875 C 75.269531 78.199219 75.425781 76.601562 75.574219 75.050781 C 75.691406 73.855469 75.8125 72.617188 75.941406 71.410156 C 77.234375 69.035156 78.585938 66.597656 79.96875 64.144531 C 83.574219 60.320312 89.15625 56.449219 95.792969 53.1875 C 96.171875 53.003906 96.398438 52.890625 96.675781 52.726562 C 99.90625 50.808594 103.683594 50.035156 108.050781 49.148438 L 109.199219 48.910156 C 113.085938 48.109375 116.316406 47.738281 119.363281 47.738281 " fill-opacity="1" fill-rule="nonzero"/><g clip-path="url(#aaaafe5b85)"><path fill="#cca650" d="M 100.183594 169.769531 C 100.179688 169.773438 100.179688 169.777344 100.179688 169.777344 C 100.179688 169.777344 100.179688 169.773438 100.183594 169.769531 Z M 97.257812 172.742188 C 97.253906 172.742188 97.253906 172.742188 97.253906 172.742188 C 97.253906 172.742188 97.253906 172.742188 97.257812 172.742188 Z M 87.59375 176.890625 C 87.734375 176.890625 87.871094 176.898438 88.011719 176.917969 C 89.175781 177.058594 90.191406 177.777344 90.703125 178.832031 C 91.234375 179.921875 91.167969 180.859375 91.148438 181.214844 C 91.128906 181.695312 91.089844 182.148438 91.050781 182.582031 C 90.992188 183.253906 90.933594 183.945312 91.007812 184.351562 C 91.269531 185.746094 92.089844 187.007812 93.511719 188.210938 C 95.480469 189.867188 97.226562 190.539062 99.191406 190.398438 C 99.78125 190.351562 100.257812 190.136719 100.792969 189.667969 C 102.75 187.953125 107.84375 181.832031 108.8125 180.03125 C 109.070312 179.554688 109.320312 178.847656 108.964844 177.589844 C 108.214844 174.921875 106.503906 173.085938 103.738281 171.976562 C 101.292969 171 100.117188 171.472656 99.292969 172.066406 C 98.398438 172.703125 97.488281 172.738281 97.179688 172.75 C 96.167969 172.839844 95.160156 172.480469 94.433594 171.761719 C 93.691406 171.023438 93.320312 169.984375 93.429688 168.945312 L 93.433594 168.867188 C 93.445312 168.539062 93.472656 167.929688 93.746094 167.238281 C 94.28125 165.882812 94.636719 163.933594 92.621094 160.875 C 91.03125 158.472656 88.890625 157 86.0625 156.375 C 84.113281 155.945312 82.597656 156.175781 81.144531 157.128906 C 80.921875 157.277344 80.691406 157.414062 80.386719 157.59375 L 79.964844 157.84375 C 78.703125 158.597656 77.105469 158.476562 75.976562 157.535156 C 74.847656 156.59375 74.433594 155.046875 74.945312 153.671875 C 76.484375 149.535156 75.597656 146.351562 72.0625 143.347656 C 68.484375 140.304688 65.199219 139.917969 61.417969 142.089844 C 60.035156 142.882812 58.289062 142.628906 57.191406 141.472656 C 56.09375 140.320312 55.925781 138.5625 56.789062 137.21875 C 59.648438 132.773438 59.332031 129.082031 55.792969 125.589844 C 52.285156 122.136719 48.667969 121.628906 44.433594 124.007812 C 40.234375 128.757812 38.992188 130.25 38.449219 130.894531 L 38.207031 131.1875 C 37.476562 132.046875 36.761719 132.921875 36.046875 133.796875 C 34.835938 135.269531 33.589844 136.789062 32.273438 138.261719 C 30.632812 140.09375 29.855469 141.691406 29.746094 143.445312 C 29.578125 146.222656 30.460938 148.554688 32.453125 150.574219 C 34.074219 152.21875 36.015625 153.164062 38.398438 153.476562 C 40.125 153.703125 41.695312 153.375 43.207031 152.488281 C 43.542969 152.285156 43.910156 152.019531 44.378906 151.675781 C 44.648438 151.480469 44.933594 151.269531 45.246094 151.050781 C 46.429688 150.222656 48.003906 150.210938 49.195312 151.03125 C 50.386719 151.851562 50.941406 153.324219 50.589844 154.726562 C 50.5625 154.828125 50.546875 154.914062 50.53125 154.980469 C 50.46875 155.273438 50.375 155.710938 50.132812 156.207031 C 49.410156 157.691406 49.394531 159.265625 50.089844 161.019531 C 51.464844 164.503906 53.855469 166.683594 57.386719 167.679688 C 60.019531 168.421875 61.964844 168.117188 63.703125 166.699219 C 63.945312 166.496094 64.164062 166.351562 64.394531 166.199219 C 64.492188 166.132812 64.605469 166.054688 64.746094 165.957031 C 65.898438 165.160156 67.417969 165.140625 68.59375 165.902344 C 69.769531 166.664062 70.367188 168.058594 70.113281 169.4375 C 70.082031 169.59375 70.066406 169.726562 70.046875 169.84375 C 69.988281 170.246094 69.914062 170.75 69.679688 171.328125 C 69.277344 172.320312 69.355469 173.429688 69.957031 175.285156 C 70.976562 178.421875 74.800781 181.820312 78.867188 181.882812 C 81.066406 181.902344 82.492188 181.265625 83.632812 179.710938 C 83.960938 179.265625 84.300781 178.871094 84.601562 178.527344 C 84.714844 178.394531 84.828125 178.261719 84.941406 178.128906 C 85.601562 177.339844 86.578125 176.890625 87.59375 176.890625 Z M 98.65625 197.332031 C 95.257812 197.332031 92.105469 196.070312 89.054688 193.492188 C 86.996094 191.757812 85.554688 189.777344 84.75 187.585938 C 82.996094 188.425781 80.996094 188.835938 78.765625 188.796875 C 72.175781 188.703125 65.417969 183.703125 63.378906 177.421875 C 63.109375 176.605469 62.855469 175.6875 62.691406 174.703125 C 60.480469 175.179688 58.078125 175.058594 55.511719 174.335938 C 49.917969 172.757812 45.820312 169.03125 43.65625 163.5625 C 43.195312 162.398438 42.894531 161.230469 42.753906 160.070312 C 41.066406 160.480469 39.308594 160.570312 37.503906 160.332031 C 33.589844 159.820312 30.234375 158.175781 27.53125 155.433594 C 24.175781 152.03125 22.554688 147.738281 22.84375 143.019531 C 23.046875 139.703125 24.445312 136.636719 27.121094 133.648438 C 28.335938 132.289062 29.484375 130.890625 30.699219 129.410156 C 31.4375 128.507812 32.175781 127.605469 32.929688 126.714844 L 33.140625 126.464844 C 33.761719 125.71875 35.058594 124.164062 39.621094 119.007812 C 39.855469 118.746094 40.125 118.519531 40.425781 118.339844 C 47.570312 114.027344 54.753906 114.855469 60.648438 120.667969 C 64.535156 124.503906 66.152344 129.066406 65.4375 133.800781 C 69.261719 133.640625 73.011719 135.078125 76.542969 138.078125 C 80.359375 141.324219 82.390625 145.152344 82.578125 149.371094 C 84.160156 149.15625 85.824219 149.238281 87.558594 149.621094 C 92.15625 150.636719 95.804688 153.144531 98.390625 157.066406 C 100.03125 159.550781 100.921875 162.035156 101.058594 164.496094 C 102.710938 164.46875 104.464844 164.820312 106.308594 165.558594 C 111.066406 167.460938 114.285156 170.972656 115.621094 175.714844 C 116.390625 178.4375 116.148438 180.992188 114.90625 183.304688 C 113.328125 186.242188 107.554688 192.9375 105.347656 194.871094 C 103.691406 196.324219 101.792969 197.136719 99.703125 197.292969 C 99.351562 197.320312 99.003906 197.332031 98.65625 197.332031 " fill-opacity="1" fill-rule="nonzero"/></g><path fill="#cca650" d="M 47.363281 157.335938 C 46.582031 157.335938 45.796875 157.074219 45.148438 156.535156 C 43.683594 155.3125 43.484375 153.132812 44.707031 151.664062 L 57.058594 136.84375 C 58.28125 135.378906 60.460938 135.179688 61.929688 136.402344 C 63.394531 137.625 63.59375 139.804688 62.371094 141.269531 L 50.019531 156.09375 C 49.335938 156.914062 48.355469 157.335938 47.363281 157.335938 " fill-opacity="1" fill-rule="nonzero"/><path fill="#cca650" d="M 66.628906 172.15625 C 65.871094 172.15625 65.109375 171.910156 64.46875 171.402344 C 62.980469 170.207031 62.738281 168.03125 63.929688 166.539062 L 75.789062 151.71875 C 76.980469 150.226562 79.15625 149.984375 80.648438 151.179688 C 82.136719 152.371094 82.382812 154.546875 81.1875 156.039062 L 69.332031 170.859375 C 68.648438 171.714844 67.640625 172.15625 66.628906 172.15625 " fill-opacity="1" fill-rule="nonzero"/><path fill="#cca650" d="M 86.882812 184.507812 C 86.132812 184.507812 85.375 184.265625 84.738281 183.761719 C 83.242188 182.578125 82.988281 180.402344 84.175781 178.902344 L 93.5625 167.046875 C 94.746094 165.550781 96.921875 165.296875 98.417969 166.480469 C 99.914062 167.667969 100.167969 169.839844 98.984375 171.339844 L 89.597656 183.199219 C 88.914062 184.058594 87.90625 184.507812 86.882812 184.507812 " fill-opacity="1" fill-rule="nonzero"/><path fill="#cca650" d="M 46.433594 35.886719 C 45.675781 35.886719 45.441406 36.121094 45.113281 36.78125 C 43.847656 39.363281 42.492188 42.078125 40.976562 45.074219 C 38.332031 50.308594 35.679688 55.535156 33.019531 60.757812 C 32.226562 62.308594 31.425781 63.859375 30.628906 65.40625 C 29.621094 67.367188 28.609375 69.332031 27.613281 71.300781 C 27.011719 72.488281 26.429688 73.6875 25.847656 74.882812 C 25.28125 76.054688 24.710938 77.222656 24.128906 78.382812 C 22.433594 81.738281 20.699219 85.136719 19.015625 88.421875 L 18.234375 89.957031 C 17.511719 91.367188 16.785156 92.78125 16.0625 94.191406 C 15.027344 96.191406 13.996094 98.199219 12.976562 100.210938 C 12.332031 101.484375 11.695312 102.761719 11.054688 104.039062 C 10.109375 105.941406 9.125 107.910156 8.121094 109.839844 C 7.777344 110.503906 7.953125 111.480469 8.480469 111.8125 C 9.679688 112.566406 10.984375 113.230469 12.367188 113.933594 L 14.566406 115.058594 C 17.628906 116.625 20.796875 118.25 23.933594 119.742188 C 24.339844 119.933594 24.945312 120.046875 25.472656 120.023438 C 25.78125 120.011719 26.207031 119.996094 26.851562 118.683594 C 28.800781 114.695312 30.828125 110.671875 32.789062 106.78125 L 34.222656 103.9375 C 36.472656 99.464844 38.734375 94.996094 41.003906 90.535156 C 42.484375 87.617188 43.972656 84.707031 45.460938 81.792969 C 47.367188 78.058594 49.273438 74.320312 51.171875 70.578125 C 52.414062 68.132812 53.640625 65.683594 54.867188 63.234375 C 55.859375 61.253906 56.851562 59.269531 57.851562 57.292969 C 59.628906 53.773438 61.519531 50.035156 63.410156 46.386719 C 63.882812 45.472656 63.890625 44.292969 62.832031 43.71875 C 61.960938 43.246094 61.078125 42.804688 60.140625 42.335938 C 59.683594 42.105469 59.226562 41.878906 58.773438 41.648438 C 57.890625 41.199219 57.007812 40.746094 56.128906 40.292969 C 54.09375 39.246094 51.992188 38.167969 49.921875 37.152344 C 49.570312 36.980469 49.21875 36.792969 48.871094 36.605469 C 48.324219 36.308594 47.496094 35.863281 47.230469 35.886719 L 46.96875 35.910156 L 46.710938 35.894531 C 46.609375 35.890625 46.515625 35.886719 46.433594 35.886719 Z M 25.339844 126.941406 C 23.8125 126.941406 22.273438 126.609375 20.964844 125.988281 C 17.734375 124.449219 14.519531 122.804688 11.410156 121.214844 L 9.234375 120.097656 C 7.773438 119.355469 6.261719 118.589844 4.792969 117.664062 C 1.246094 115.429688 -0.0117188 110.492188 1.984375 106.652344 C 2.960938 104.769531 3.929688 102.828125 4.867188 100.953125 C 5.511719 99.660156 6.15625 98.367188 6.8125 97.078125 C 7.835938 95.058594 8.871094 93.042969 9.910156 91.023438 C 10.632812 89.621094 11.355469 88.214844 12.074219 86.808594 L 12.859375 85.273438 C 14.535156 81.996094 16.265625 78.605469 17.949219 75.269531 C 18.519531 74.140625 19.074219 73 19.628906 71.863281 C 20.214844 70.65625 20.820312 69.40625 21.441406 68.175781 C 22.445312 66.191406 23.464844 64.21875 24.480469 62.242188 C 25.277344 60.699219 26.070312 59.160156 26.855469 57.617188 C 29.511719 52.402344 32.164062 47.179688 34.804688 41.953125 C 36.308594 38.980469 37.648438 36.292969 38.90625 33.730469 C 40.476562 30.535156 43.292969 28.855469 46.867188 28.980469 C 49.085938 28.859375 50.859375 29.816406 52.164062 30.519531 C 52.429688 30.664062 52.699219 30.808594 52.96875 30.941406 C 55.097656 31.988281 57.226562 33.082031 59.289062 34.140625 C 60.164062 34.589844 61.039062 35.039062 61.917969 35.484375 C 62.355469 35.710938 62.792969 35.929688 63.234375 36.148438 C 64.179688 36.621094 65.15625 37.109375 66.125 37.636719 C 70.402344 39.953125 71.875 45.082031 69.550781 49.566406 C 67.675781 53.191406 65.867188 56.765625 64.023438 60.414062 C 63.027344 62.382812 62.039062 64.359375 61.050781 66.332031 C 59.816406 68.792969 58.582031 71.253906 57.339844 73.707031 C 55.4375 77.457031 53.53125 81.195312 51.617188 84.9375 C 50.132812 87.847656 48.648438 90.757812 47.167969 93.667969 C 44.902344 98.125 42.648438 102.582031 40.402344 107.046875 L 38.964844 109.898438 C 37.011719 113.765625 34.992188 117.769531 33.0625 121.71875 C 31.03125 125.878906 27.957031 126.851562 25.738281 126.933594 C 25.605469 126.941406 25.472656 126.941406 25.339844 126.941406 " fill-opacity="1" fill-rule="nonzero"/><g clip-path="url(#e76a79c5aa)"><path fill="#cca650" d="M 180.207031 34.699219 C 178.042969 35.675781 175.847656 36.722656 173.722656 37.734375 L 171.875 38.609375 C 171.054688 39 170.238281 39.390625 169.421875 39.78125 C 167.855469 40.535156 166.234375 41.3125 164.605469 42.058594 C 163.941406 42.359375 163.464844 43.503906 163.609375 43.933594 C 163.894531 44.761719 164.316406 45.632812 164.757812 46.550781 L 164.867188 46.777344 C 165.78125 48.664062 166.699219 50.546875 167.617188 52.429688 C 168.902344 55.054688 170.183594 57.683594 171.445312 60.320312 C 172.203125 61.902344 172.945312 63.511719 173.660156 65.066406 C 174.320312 66.496094 174.976562 67.929688 175.652344 69.351562 C 176.558594 71.253906 177.480469 73.144531 178.402344 75.039062 C 179.265625 76.800781 180.125 78.566406 180.96875 80.339844 C 182.054688 82.609375 183.128906 84.886719 184.199219 87.160156 C 185.097656 89.070312 185.996094 90.980469 186.90625 92.882812 C 188.855469 96.976562 190.808594 101.0625 192.765625 105.152344 L 196.527344 113.019531 C 197.445312 114.941406 198.367188 116.859375 199.28125 118.785156 C 199.433594 119.066406 200.195312 119.410156 200.53125 119.34375 C 202.226562 118.738281 203.742188 118.125 205.132812 117.484375 C 208.710938 115.828125 211.652344 114.410156 214.386719 113.023438 C 215.496094 112.464844 216.757812 111.78125 217.714844 110.976562 C 217.984375 110.753906 217.980469 110.101562 217.835938 109.796875 C 215.988281 105.859375 214.078125 101.859375 212.238281 97.992188 L 210.714844 94.808594 C 208.191406 89.511719 205.667969 84.214844 203.136719 78.917969 C 202.089844 76.730469 201.039062 74.546875 199.988281 72.363281 C 198.828125 69.949219 197.667969 67.539062 196.515625 65.125 C 194.765625 61.46875 193.027344 57.800781 191.285156 54.136719 L 188.382812 48.027344 C 186.476562 44.019531 184.570312 40.003906 182.679688 35.984375 C 182.082031 34.722656 181.660156 34.570312 181.179688 34.5625 C 181.007812 34.589844 180.828125 34.613281 180.652344 34.636719 C 180.503906 34.65625 180.308594 34.675781 180.207031 34.699219 Z M 200.472656 126.261719 C 197.460938 126.261719 194.339844 124.492188 193.039062 121.757812 C 192.121094 119.839844 191.207031 117.921875 190.289062 116.003906 L 186.527344 108.140625 C 184.566406 104.046875 182.609375 99.953125 180.660156 95.855469 C 179.75 93.941406 178.847656 92.023438 177.941406 90.105469 C 176.875 87.84375 175.808594 85.578125 174.730469 83.320312 C 173.890625 81.566406 173.039062 79.816406 172.1875 78.066406 C 171.257812 76.15625 170.324219 74.242188 169.410156 72.324219 C 168.71875 70.875 168.046875 69.414062 167.375 67.953125 C 166.671875 66.421875 165.945312 64.839844 165.207031 63.308594 C 163.953125 60.6875 162.679688 58.078125 161.402344 55.464844 C 160.480469 53.570312 159.558594 51.679688 158.640625 49.785156 L 158.535156 49.5625 C 158.019531 48.5 157.484375 47.398438 157.0625 46.164062 C 155.742188 42.285156 157.878906 37.523438 161.734375 35.765625 C 163.296875 35.050781 164.890625 34.285156 166.425781 33.546875 C 167.253906 33.152344 168.082031 32.75 168.914062 32.359375 L 170.75 31.488281 C 172.933594 30.449219 175.191406 29.375 177.445312 28.355469 C 178.335938 27.953125 179.179688 27.851562 179.796875 27.773438 C 179.941406 27.753906 180.089844 27.738281 180.230469 27.710938 L 180.5 27.660156 L 180.773438 27.652344 C 183.304688 27.578125 186.777344 28.457031 188.9375 33.039062 C 190.824219 37.050781 192.730469 41.054688 194.632812 45.058594 L 197.535156 51.171875 C 199.269531 54.832031 201.007812 58.488281 202.753906 62.144531 C 203.90625 64.550781 205.0625 66.960938 206.21875 69.363281 C 207.273438 71.554688 208.328125 73.746094 209.375 75.933594 C 211.910156 81.230469 214.433594 86.53125 216.960938 91.832031 L 218.480469 95.015625 C 220.328125 98.890625 222.238281 102.898438 224.097656 106.855469 C 225.402344 109.636719 225.15625 113.765625 222.160156 116.277344 C 220.667969 117.53125 218.972656 118.457031 217.511719 119.195312 C 214.699219 120.617188 211.691406 122.066406 208.039062 123.757812 C 206.457031 124.488281 204.753906 125.179688 202.824219 125.871094 C 202.074219 126.136719 201.277344 126.261719 200.472656 126.261719 " fill-opacity="1" fill-rule="nonzero"/></g></svg>