<svg xmlns="http://www.w3.org/2000/svg" xmlns:xlink="http://www.w3.org/1999/xlink" width="150" zoomAndPan="magnify" viewBox="0 0 112.5 112.499997" height="150" preserveAspectRatio="xMidYMid meet" version="1.0"><defs><clipPath id="60767f5d30"><path d="M 7 88 L 41 88 L 41 104.816406 L 7 104.816406 Z M 7 88 " clip-rule="nonzero"/></clipPath></defs><path fill="#cca650" d="M 107.851562 40.859375 C 103.738281 34.597656 96.664062 31.164062 89.265625 31.792969 L 85.878906 26.640625 C 85.023438 25.335938 83.339844 24.980469 82.046875 25.832031 L 78.875 27.917969 C 78.804688 27.535156 78.675781 27.152344 78.464844 26.800781 L 77.324219 24.890625 C 76.867188 24.121094 76.136719 23.578125 75.269531 23.363281 C 75.21875 23.351562 75.164062 23.351562 75.113281 23.339844 C 75.265625 22.550781 75.152344 21.707031 74.710938 20.96875 L 73.574219 19.058594 C 73.113281 18.292969 72.386719 17.75 71.523438 17.535156 C 71.75 16.601562 71.597656 15.578125 70.988281 14.746094 L 69.675781 12.953125 C 69.144531 12.230469 68.367188 11.757812 67.484375 11.625 C 67.269531 11.59375 67.050781 11.582031 66.835938 11.59375 C 66.757812 10.207031 65.835938 8.957031 64.441406 8.550781 L 62.320312 7.941406 C 61.46875 7.695312 60.570312 7.796875 59.792969 8.230469 C 59.613281 8.332031 59.445312 8.453125 59.289062 8.582031 C 58.945312 8.160156 58.519531 7.820312 58.003906 7.605469 C 57.183594 7.265625 56.28125 7.261719 55.460938 7.601562 L 53.421875 8.449219 C 52.292969 8.917969 51.570312 9.945312 51.40625 11.082031 C 50.785156 10.996094 50.148438 11.082031 49.5625 11.355469 C 48.75 11.730469 48.132812 12.40625 47.828125 13.253906 L 47.074219 15.347656 C 46.796875 16.121094 46.832031 16.925781 47.089844 17.640625 C 47.011719 17.671875 46.925781 17.691406 46.847656 17.726562 C 46.035156 18.105469 45.417969 18.78125 45.113281 19.625 L 44.359375 21.722656 C 43.96875 22.792969 44.164062 23.941406 44.777344 24.808594 C 43.929688 25.417969 43.371094 26.410156 43.371094 27.539062 L 43.371094 29.765625 C 43.371094 30.257812 43.480469 30.71875 43.667969 31.136719 L 40.003906 31.136719 C 38.453125 31.136719 37.242188 32.359375 37.242188 33.917969 L 37.242188 40.082031 C 30.730469 43.601562 26.703125 50.339844 26.683594 57.8125 C 26.683594 57.972656 26.703125 58.125 26.703125 58.285156 L 19.761719 66.273438 C 19.207031 66.019531 18.605469 65.882812 17.964844 65.917969 C 16.894531 65.972656 15.914062 66.453125 15.148438 67.335938 C 13.703125 68.996094 13.832031 71.574219 15.433594 73.074219 L 26.605469 83.550781 C 27.34375 84.242188 28.28125 84.617188 29.273438 84.617188 C 29.339844 84.617188 29.40625 84.613281 29.472656 84.613281 C 30.539062 84.558594 31.523438 84.078125 32.289062 83.195312 C 33.457031 81.847656 33.578125 79.914062 32.742188 78.425781 L 34.296875 76.636719 L 60.121094 100.851562 C 60.304688 101.023438 60.546875 101.117188 60.796875 101.117188 C 60.816406 101.117188 60.832031 101.117188 60.847656 101.117188 C 61.117188 101.101562 61.371094 100.980469 61.546875 100.777344 L 65.394531 96.351562 C 65.746094 95.945312 65.714844 95.339844 65.324219 94.972656 L 47.304688 78.078125 C 52.28125 77.925781 56.949219 75.96875 60.566406 72.460938 C 64.53125 68.609375 66.714844 63.429688 66.714844 57.875 C 66.714844 50.382812 62.6875 43.621094 56.15625 40.085938 L 56.15625 33.917969 C 56.15625 32.359375 54.945312 31.136719 53.394531 31.136719 L 49.734375 31.136719 C 49.921875 30.71875 50.03125 30.257812 50.03125 29.765625 L 50.03125 27.539062 C 50.03125 26.816406 49.796875 26.148438 49.410156 25.601562 C 49.960938 25.210938 50.382812 24.664062 50.617188 24.011719 L 51.371094 21.917969 C 51.648438 21.148438 51.613281 20.34375 51.351562 19.625 C 51.433594 19.59375 51.519531 19.578125 51.601562 19.539062 C 52.410156 19.164062 53.027344 18.488281 53.332031 17.644531 L 54.085938 15.546875 C 54.167969 15.324219 54.222656 15.09375 54.253906 14.867188 C 54.398438 14.886719 54.542969 14.910156 54.6875 14.910156 C 55.117188 14.910156 55.546875 14.824219 55.957031 14.65625 L 57.996094 13.808594 C 58.308594 13.675781 58.582031 13.492188 58.832031 13.289062 C 59.246094 13.800781 59.8125 14.199219 60.488281 14.394531 L 62.609375 15.003906 C 62.914062 15.089844 63.222656 15.136719 63.53125 15.136719 C 63.578125 15.136719 63.628906 15.117188 63.675781 15.117188 C 63.707031 15.753906 63.914062 16.386719 64.316406 16.9375 L 65.628906 18.726562 C 66.089844 19.359375 66.75 19.785156 67.492188 19.972656 C 67.285156 20.808594 67.394531 21.722656 67.867188 22.515625 L 69.003906 24.429688 C 69.464844 25.199219 70.195312 25.742188 71.0625 25.957031 C 71.113281 25.96875 71.167969 25.964844 71.222656 25.976562 C 71.066406 26.765625 71.179688 27.609375 71.621094 28.351562 L 72.757812 30.261719 C 73.011719 30.683594 73.347656 31.027344 73.738281 31.296875 L 70.851562 33.191406 C 69.558594 34.042969 69.214844 35.730469 70.070312 37.035156 L 73.453125 42.1875 C 69.945312 48.703125 70.273438 56.550781 74.359375 62.804688 C 80.273438 71.882812 92.539062 74.707031 101.703125 69.097656 C 101.878906 68.992188 102.050781 68.878906 102.222656 68.765625 C 106.570312 65.910156 109.574219 61.550781 110.714844 56.433594 C 111.917969 51.035156 110.902344 45.503906 107.851562 40.859375 Z M 35.601562 75.136719 L 38.144531 72.207031 L 63.269531 95.769531 L 60.726562 98.695312 Z M 31.402344 76.941406 L 21.328125 67.496094 L 29.375 58.242188 L 39.445312 67.6875 L 37.324219 70.125 C 37.324219 70.125 37.324219 70.128906 37.324219 70.128906 L 34.09375 73.84375 Z M 27.960938 82.101562 L 16.789062 71.625 C 15.957031 70.84375 15.890625 69.503906 16.699219 68.578125 C 17.054688 68.167969 17.539062 67.925781 18.0625 67.902344 C 18.097656 67.898438 18.128906 67.898438 18.160156 67.898438 C 18.578125 67.898438 18.964844 68.058594 19.300781 68.316406 L 30.753906 79.054688 C 31.457031 79.851562 31.496094 81.078125 30.738281 81.953125 C 30.382812 82.363281 29.898438 82.601562 29.375 82.628906 C 28.851562 82.652344 28.351562 82.464844 27.960938 82.101562 Z M 44.074219 66.605469 C 43.71875 67.015625 43.234375 67.253906 42.710938 67.28125 C 42.265625 67.3125 41.832031 67.140625 41.46875 66.859375 L 30.023438 56.128906 C 29.316406 55.335938 29.277344 54.105469 30.039062 53.230469 C 30.394531 52.820312 30.878906 52.582031 31.402344 52.554688 C 31.433594 52.550781 31.46875 52.550781 31.5 52.550781 C 31.984375 52.550781 32.449219 52.738281 32.8125 53.082031 L 43.984375 63.558594 C 44.820312 64.335938 44.882812 65.675781 44.074219 66.605469 Z M 41.015625 68.910156 C 41.515625 69.136719 42.054688 69.269531 42.613281 69.269531 C 42.679688 69.269531 42.746094 69.269531 42.8125 69.265625 C 43.878906 69.210938 44.859375 68.730469 45.628906 67.847656 C 47.074219 66.183594 46.945312 63.609375 45.34375 62.105469 L 35.441406 52.824219 C 37.363281 48.464844 41.683594 45.410156 46.699219 45.410156 C 53.496094 45.410156 59.023438 51.003906 59.023438 57.875 C 59.023438 64.75 53.496094 70.339844 46.699219 70.339844 C 44.644531 70.339844 42.710938 69.824219 41.003906 68.917969 Z M 54.171875 33.917969 L 54.171875 40.683594 C 54.171875 41.058594 54.382812 41.402344 54.71875 41.570312 C 60.894531 44.683594 64.730469 50.929688 64.730469 57.875 C 64.730469 62.886719 62.761719 67.5625 59.183594 71.039062 C 55.660156 74.457031 51.035156 76.257812 46.140625 76.109375 C 45.796875 76.097656 45.460938 76.054688 45.117188 76.023438 L 39.449219 70.707031 L 39.675781 70.449219 C 41.753906 71.640625 44.144531 72.328125 46.699219 72.328125 C 54.589844 72.328125 61.007812 65.84375 61.007812 57.875 C 61.007812 49.90625 54.589844 43.421875 46.699219 43.421875 C 41.105469 43.421875 36.261719 46.691406 33.910156 51.433594 C 33.160156 50.839844 32.25 50.53125 31.300781 50.570312 C 30.875 50.59375 30.464844 50.703125 30.070312 50.859375 C 31.707031 46.894531 34.695312 43.574219 38.679688 41.574219 C 39.015625 41.40625 39.226562 41.0625 39.226562 40.683594 L 39.226562 33.917969 C 39.226562 33.464844 39.558594 33.121094 40.003906 33.121094 L 53.394531 33.121094 C 53.839844 33.121094 54.171875 33.464844 54.171875 33.917969 Z M 45.355469 29.765625 L 45.355469 27.539062 C 45.355469 26.78125 45.957031 26.167969 46.699219 26.167969 C 47.441406 26.167969 48.046875 26.78125 48.046875 27.539062 L 48.046875 29.765625 C 48.046875 30.523438 47.441406 31.136719 46.699219 31.136719 C 45.957031 31.136719 45.355469 30.523438 45.355469 29.765625 Z M 49.503906 21.246094 L 48.75 23.339844 C 48.625 23.6875 48.375 23.960938 48.046875 24.113281 C 47.722656 24.265625 47.363281 24.277344 47.027344 24.152344 C 46.328125 23.898438 45.96875 23.109375 46.222656 22.394531 L 46.980469 20.300781 C 47.105469 19.957031 47.355469 19.679688 47.683594 19.527344 C 47.859375 19.445312 48.050781 19.402344 48.242188 19.402344 C 48.394531 19.402344 48.550781 19.429688 48.699219 19.484375 C 48.699219 19.484375 48.699219 19.484375 48.703125 19.488281 C 49.402344 19.742188 49.761719 20.53125 49.503906 21.246094 Z M 52.21875 14.875 L 51.464844 16.96875 C 51.339844 17.3125 51.089844 17.585938 50.761719 17.738281 C 50.441406 17.890625 50.078125 17.90625 49.746094 17.785156 C 49.042969 17.523438 48.683594 16.734375 48.941406 16.023438 L 49.695312 13.929688 C 49.820312 13.585938 50.070312 13.308594 50.398438 13.15625 C 50.578125 13.070312 50.765625 13.03125 50.957031 13.03125 C 51.109375 13.03125 51.265625 13.058594 51.414062 13.113281 C 51.414062 13.113281 51.414062 13.113281 51.417969 13.113281 C 52.117188 13.371094 52.476562 14.160156 52.21875 14.875 Z M 57.234375 11.972656 L 55.195312 12.820312 C 54.867188 12.957031 54.507812 12.957031 54.175781 12.816406 C 53.84375 12.679688 53.585938 12.414062 53.445312 12.074219 C 53.160156 11.375 53.492188 10.570312 54.179688 10.285156 L 56.222656 9.4375 C 56.386719 9.371094 56.558594 9.335938 56.730469 9.335938 C 56.902344 9.335938 57.078125 9.371094 57.238281 9.4375 C 57.574219 9.578125 57.835938 9.839844 57.972656 10.183594 C 58.257812 10.882812 57.929688 11.6875 57.234375 11.972656 Z M 63.160156 13.09375 L 61.039062 12.484375 C 60.320312 12.277344 59.90625 11.519531 60.113281 10.789062 C 60.210938 10.433594 60.441406 10.144531 60.757812 9.964844 C 60.960938 9.855469 61.179688 9.796875 61.402344 9.796875 C 61.527344 9.796875 61.648438 9.8125 61.769531 9.847656 L 63.890625 10.460938 C 64.609375 10.667969 65.023438 11.425781 64.816406 12.15625 C 64.71875 12.511719 64.488281 12.800781 64.171875 12.980469 C 63.859375 13.152344 63.5 13.195312 63.160156 13.09375 Z M 65.917969 15.765625 C 65.472656 15.152344 65.597656 14.289062 66.199219 13.839844 C 66.433594 13.664062 66.710938 13.574219 66.996094 13.574219 C 67.058594 13.574219 67.125 13.582031 67.191406 13.589844 C 67.546875 13.640625 67.859375 13.832031 68.074219 14.125 L 69.386719 15.917969 C 69.832031 16.527344 69.707031 17.390625 69.105469 17.839844 C 68.816406 18.054688 68.460938 18.140625 68.113281 18.089844 C 67.757812 18.039062 67.445312 17.847656 67.230469 17.554688 Z M 70.707031 23.410156 L 69.570312 21.5 C 69.183594 20.851562 69.390625 20.003906 70.027344 19.613281 C 70.238281 19.484375 70.476562 19.417969 70.71875 19.417969 C 70.824219 19.417969 70.929688 19.433594 71.035156 19.457031 C 71.386719 19.546875 71.683594 19.765625 71.871094 20.078125 L 73.007812 21.988281 C 73.394531 22.632812 73.191406 23.480469 72.550781 23.875 C 72.246094 24.058594 71.886719 24.113281 71.539062 24.027344 C 71.191406 23.941406 70.894531 23.722656 70.707031 23.410156 Z M 75.292969 29.863281 C 74.945312 29.773438 74.648438 29.554688 74.460938 29.242188 L 73.324219 27.332031 C 72.9375 26.683594 73.144531 25.839844 73.78125 25.445312 C 73.992188 25.320312 74.230469 25.253906 74.472656 25.253906 C 74.578125 25.253906 74.683594 25.265625 74.789062 25.292969 C 75.140625 25.378906 75.433594 25.597656 75.621094 25.914062 L 76.761719 27.820312 C 77.0625 28.324219 77 28.9375 76.660156 29.375 L 75.972656 29.824219 C 75.753906 29.890625 75.523438 29.917969 75.292969 29.863281 Z M 108.777344 56 C 107.710938 60.792969 104.835938 64.84375 100.664062 67.40625 C 92.410156 72.460938 81.355469 69.910156 76.023438 61.722656 C 72.234375 55.921875 72.023438 48.609375 75.472656 42.644531 C 75.660156 42.316406 75.652344 41.914062 75.445312 41.601562 L 71.730469 35.945312 C 71.480469 35.5625 71.574219 35.09375 71.941406 34.851562 L 76.90625 31.589844 C 77.050781 31.527344 77.199219 31.484375 77.335938 31.398438 C 77.570312 31.257812 77.773438 31.085938 77.957031 30.898438 L 83.136719 27.492188 C 83.503906 27.25 83.972656 27.351562 84.222656 27.730469 L 87.9375 33.386719 C 88.140625 33.699219 88.507812 33.871094 88.878906 33.828125 C 95.75 33.035156 102.382812 36.148438 106.191406 41.953125 C 108.945312 46.140625 109.863281 51.132812 108.777344 56 Z M 108.777344 56 " fill-opacity="1" fill-rule="nonzero"/><path fill="#cca650" d="M 83.191406 39.78125 C 76.597656 44.117188 74.792969 53.0625 79.164062 59.722656 C 83.539062 66.382812 92.460938 68.273438 99.054688 63.9375 C 105.648438 59.601562 107.453125 50.65625 103.082031 43.996094 C 98.707031 37.335938 89.785156 35.445312 83.191406 39.78125 Z M 97.964844 62.277344 C 92.285156 66.011719 84.59375 64.375 80.824219 58.632812 C 77.050781 52.886719 78.601562 45.175781 84.28125 41.441406 C 89.960938 37.707031 97.652344 39.34375 101.421875 45.085938 C 105.195312 50.832031 103.644531 58.542969 97.964844 62.277344 Z M 97.964844 62.277344 " fill-opacity="1" fill-rule="nonzero"/><path fill="#cca650" d="M 43.453125 34.71875 C 42.902344 34.71875 42.460938 35.164062 42.460938 35.710938 L 42.460938 38.648438 C 42.460938 39.195312 42.902344 39.640625 43.453125 39.640625 C 44 39.640625 44.445312 39.195312 44.445312 38.648438 L 44.445312 35.710938 C 44.445312 35.164062 44 34.71875 43.453125 34.71875 Z M 43.453125 34.71875 " fill-opacity="1" fill-rule="nonzero"/><path fill="#cca650" d="M 49.949219 39.640625 C 50.496094 39.640625 50.941406 39.195312 50.941406 38.648438 L 50.941406 35.710938 C 50.941406 35.164062 50.496094 34.71875 49.949219 34.71875 C 49.398438 34.71875 48.957031 35.164062 48.957031 35.710938 L 48.957031 38.648438 C 48.957031 39.195312 49.398438 39.640625 49.949219 39.640625 Z M 49.949219 39.640625 " fill-opacity="1" fill-rule="nonzero"/><path fill="#cca650" d="M 77.882812 38.648438 C 78.070312 38.648438 78.261719 38.59375 78.429688 38.484375 C 78.886719 38.183594 79.011719 37.566406 78.710938 37.109375 L 77.101562 34.664062 C 76.804688 34.203125 76.1875 34.078125 75.730469 34.378906 C 75.273438 34.679688 75.144531 35.296875 75.445312 35.757812 L 77.054688 38.199219 C 77.246094 38.492188 77.5625 38.648438 77.882812 38.648438 Z M 77.882812 38.648438 " fill-opacity="1" fill-rule="nonzero"/><path fill="#cca650" d="M 82.464844 34.566406 C 82.65625 34.859375 82.972656 35.015625 83.292969 35.015625 C 83.480469 35.015625 83.671875 34.960938 83.839844 34.851562 C 84.296875 34.550781 84.421875 33.933594 84.121094 33.476562 L 82.511719 31.03125 C 82.214844 30.574219 81.597656 30.449219 81.140625 30.746094 C 80.679688 31.050781 80.554688 31.664062 80.855469 32.121094 Z M 82.464844 34.566406 " fill-opacity="1" fill-rule="nonzero"/><g clip-path="url(#60767f5d30)"><path fill="#cca650" d="M 37.667969 95.597656 L 37.453125 95.597656 L 37.453125 91.746094 C 37.453125 89.96875 36.007812 88.523438 34.234375 88.523438 L 13.910156 88.523438 C 12.132812 88.523438 10.691406 89.96875 10.691406 91.746094 L 10.691406 95.597656 L 10.472656 95.597656 C 8.699219 95.597656 7.253906 97.039062 7.253906 98.816406 L 7.253906 103.660156 C 7.253906 104.210938 7.699219 104.65625 8.246094 104.65625 L 39.898438 104.65625 C 40.445312 104.65625 40.890625 104.210938 40.890625 103.660156 L 40.890625 98.816406 C 40.890625 97.039062 39.445312 95.597656 37.667969 95.597656 Z M 9.238281 98.816406 C 9.238281 98.136719 9.792969 97.582031 10.472656 97.582031 L 37.667969 97.582031 C 38.351562 97.582031 38.90625 98.136719 38.90625 98.816406 L 38.90625 102.667969 L 9.238281 102.667969 Z M 12.675781 91.746094 C 12.675781 91.0625 13.226562 90.507812 13.910156 90.507812 L 34.234375 90.507812 C 34.914062 90.507812 35.46875 91.0625 35.46875 91.746094 L 35.46875 95.597656 L 12.675781 95.597656 Z M 12.675781 91.746094 " fill-opacity="1" fill-rule="nonzero"/></g><path fill="#cca650" d="M 12.628906 84.863281 C 12.460938 84.34375 11.902344 84.054688 11.378906 84.21875 L 1.332031 87.425781 C 0.8125 87.59375 0.523438 88.152344 0.6875 88.675781 C 0.824219 89.097656 1.214844 89.367188 1.636719 89.367188 C 1.734375 89.367188 1.835938 89.351562 1.9375 89.320312 L 11.984375 86.113281 C 12.503906 85.945312 12.792969 85.386719 12.628906 84.863281 Z M 12.628906 84.863281 " fill-opacity="1" fill-rule="nonzero"/><path fill="#cca650" d="M 11.4375 82.007812 C 11.453125 82.007812 11.472656 82.007812 11.488281 82.007812 C 12.011719 82.007812 12.453125 81.597656 12.480469 81.070312 C 12.507812 80.523438 12.089844 80.054688 11.542969 80.027344 L 1.046875 79.464844 C 0.496094 79.414062 0.03125 79.851562 0 80.402344 C -0.0273438 80.949219 0.394531 81.417969 0.9375 81.445312 Z M 11.4375 82.007812 " fill-opacity="1" fill-rule="nonzero"/><path fill="#cca650" d="M 1.769531 72.863281 L 11.238281 77.597656 C 11.378906 77.667969 11.53125 77.699219 11.679688 77.699219 C 12.046875 77.699219 12.394531 77.5 12.570312 77.152344 C 12.816406 76.660156 12.617188 76.0625 12.125 75.820312 L 2.65625 71.085938 C 2.167969 70.839844 1.566406 71.042969 1.324219 71.53125 C 1.078125 72.019531 1.277344 72.617188 1.769531 72.863281 Z M 1.769531 72.863281 " fill-opacity="1" fill-rule="nonzero"/></svg>