<svg xmlns="http://www.w3.org/2000/svg" xmlns:xlink="http://www.w3.org/1999/xlink" width="300" zoomAndPan="magnify" viewBox="0 0 224.87999 225" height="300" preserveAspectRatio="xMidYMid meet" version="1.0"><defs><clipPath id="b92c28a3f1"><path d="M 28.847656 0.0585938 L 195.972656 0.0585938 L 195.972656 224.9375 L 28.847656 224.9375 Z M 28.847656 0.0585938 " clip-rule="nonzero"/></clipPath></defs><g clip-path="url(#b92c28a3f1)"><path fill="#cca650" d="M 148.707031 142.671875 L 139.027344 154.902344 C 138.085938 156.09375 136.609375 156.804688 135.085938 156.804688 C 134.683594 156.804688 134.28125 156.757812 133.894531 156.660156 L 118.746094 152.9375 C 117.722656 152.6875 116.667969 152.558594 115.613281 152.558594 C 114.167969 152.558594 112.734375 152.796875 111.359375 153.269531 L 96.605469 158.324219 C 96.082031 158.503906 95.539062 158.59375 94.984375 158.59375 C 93.609375 158.59375 92.277344 158.023438 91.335938 157.03125 L 80.605469 145.707031 C 78.871094 143.878906 76.660156 142.59375 74.210938 141.992188 L 59.066406 138.269531 C 57.164062 137.800781 55.695312 136.257812 55.332031 134.332031 L 52.425781 119.007812 C 51.957031 116.53125 50.792969 114.253906 49.058594 112.421875 L 38.328125 101.101562 C 36.980469 99.679688 36.582031 97.585938 37.316406 95.769531 L 43.15625 81.308594 C 44.101562 78.96875 44.351562 76.425781 43.882812 73.949219 L 40.976562 58.625 C 40.609375 56.699219 41.410156 54.722656 43.007812 53.589844 L 55.742188 44.582031 C 57.796875 43.125 59.386719 41.121094 60.328125 38.78125 L 66.171875 24.320312 C 66.902344 22.503906 68.644531 21.273438 70.601562 21.183594 L 86.183594 20.492188 C 88.703125 20.378906 91.121094 19.546875 93.179688 18.09375 L 105.910156 9.082031 C 106.761719 8.480469 107.761719 8.164062 108.8125 8.164062 C 109.699219 8.164062 110.570312 8.398438 111.332031 8.839844 L 124.816406 16.679688 C 126.816406 17.84375 129.097656 18.457031 131.414062 18.457031 C 131.605469 18.457031 131.804688 18.453125 131.996094 18.445312 L 147.578125 17.75 C 147.65625 17.746094 147.730469 17.746094 147.804688 17.746094 C 149.667969 17.746094 151.421875 18.816406 152.273438 20.476562 L 159.378906 34.363281 C 160.523438 36.609375 162.285156 38.464844 164.464844 39.730469 L 177.949219 47.570312 C 179.640625 48.554688 180.613281 50.449219 180.421875 52.402344 L 178.890625 67.921875 C 178.644531 70.429688 179.121094 72.945312 180.269531 75.191406 L 187.375 89.074219 C 188.265625 90.816406 188.058594 92.9375 186.84375 94.476562 L 177.164062 106.707031 C 175.597656 108.683594 174.644531 111.054688 174.394531 113.5625 L 172.863281 129.085938 C 172.671875 131.035156 171.351562 132.707031 169.5 133.339844 L 154.742188 138.398438 C 152.359375 139.214844 150.269531 140.691406 148.707031 142.671875 Z M 117.378906 160.949219 L 131.960938 164.535156 C 132.980469 164.785156 134.027344 164.910156 135.078125 164.910156 C 137.035156 164.910156 139 164.464844 140.769531 163.617188 C 142.5625 162.757812 144.15625 161.484375 145.386719 159.933594 L 155.0625 147.703125 C 155.457031 147.207031 155.941406 146.792969 156.492188 146.480469 L 181.636719 193.71875 L 160.476562 195.015625 C 159.304688 195.085938 158.222656 195.664062 157.507812 196.59375 L 144.613281 213.425781 L 117.03125 161.605469 Z M 72.277344 149.863281 C 73.210938 150.09375 74.058594 150.585938 74.722656 151.285156 L 85.449219 162.605469 C 87.917969 165.207031 91.394531 166.699219 94.992188 166.699219 C 96.4375 166.699219 97.867188 166.464844 99.234375 165.996094 L 106.910156 163.363281 L 80.265625 213.425781 L 67.371094 196.59375 C 66.65625 195.664062 65.574219 195.085938 64.402344 195.015625 L 43.242188 193.71875 L 67.242188 148.628906 Z M 180.933594 129.878906 L 182.464844 114.359375 C 182.558594 113.398438 182.925781 112.492188 183.523438 111.734375 L 193.199219 99.503906 C 196.378906 95.484375 196.925781 89.941406 194.589844 85.378906 L 187.484375 71.496094 C 187.046875 70.636719 186.863281 69.675781 186.960938 68.71875 L 188.488281 53.195312 C 188.992188 48.097656 186.453125 43.136719 182.023438 40.5625 L 168.539062 32.722656 C 167.707031 32.238281 167.03125 31.527344 166.59375 30.667969 L 159.488281 16.785156 C 158.386719 14.632812 156.710938 12.828125 154.640625 11.566406 C 152.574219 10.304688 150.210938 9.636719 147.796875 9.636719 C 147.605469 9.636719 147.410156 9.644531 147.21875 9.652344 L 131.636719 10.347656 C 131.5625 10.351562 131.484375 10.351562 131.410156 10.351562 C 130.527344 10.351562 129.65625 10.117188 128.890625 9.671875 L 115.40625 1.832031 C 113.410156 0.671875 111.132812 0.0585938 108.8125 0.0585938 C 106.074219 0.0585938 103.453125 0.890625 101.226562 2.464844 L 88.496094 11.472656 C 87.707031 12.03125 86.785156 12.347656 85.820312 12.390625 L 70.238281 13.085938 C 65.121094 13.316406 60.570312 16.535156 58.652344 21.285156 L 52.8125 35.746094 C 52.453125 36.640625 51.84375 37.40625 51.058594 37.964844 L 38.324219 46.972656 C 34.144531 49.933594 32.058594 55.097656 33.011719 60.132812 L 35.917969 75.457031 C 36.097656 76.40625 36 77.378906 35.640625 78.273438 L 29.800781 92.734375 C 27.878906 97.488281 28.917969 102.960938 32.445312 106.679688 L 43.171875 118 C 43.835938 118.699219 44.28125 119.570312 44.460938 120.515625 L 47.367188 135.839844 C 48.320312 140.875 52.152344 144.917969 57.128906 146.140625 L 59.121094 146.632812 L 33.125 195.472656 C 32.472656 196.695312 32.488281 198.148438 33.164062 199.359375 C 33.839844 200.566406 35.070312 201.339844 36.453125 201.425781 L 62.058594 202.992188 L 77.660156 223.359375 C 78.421875 224.351562 79.625 224.945312 80.878906 224.945312 C 80.992188 224.945312 81.105469 224.941406 81.214844 224.933594 C 82.59375 224.820312 83.808594 224.023438 84.457031 222.796875 L 112.4375 170.230469 L 140.417969 222.796875 C 141.070312 224.023438 142.285156 224.820312 143.664062 224.933594 C 143.769531 224.941406 143.882812 224.945312 143.996094 224.945312 C 145.25 224.945312 146.453125 224.351562 147.214844 223.359375 L 162.816406 202.992188 L 188.421875 201.425781 C 189.808594 201.339844 191.035156 200.566406 191.710938 199.359375 C 192.386719 198.148438 192.402344 196.695312 191.753906 195.472656 L 164.207031 143.726562 L 172.128906 141.011719 C 176.972656 139.347656 180.429688 134.980469 180.933594 129.878906 " fill-opacity="1" fill-rule="nonzero"/></g><path fill="#cca650" d="M 112.4375 130.140625 C 87.878906 130.140625 67.894531 110.15625 67.894531 85.597656 C 67.894531 61.035156 87.878906 41.054688 112.4375 41.054688 C 137 41.054688 156.980469 61.035156 156.980469 85.597656 C 156.980469 110.15625 137 130.140625 112.4375 130.140625 Z M 112.4375 32.945312 C 83.40625 32.945312 59.789062 56.566406 59.789062 85.597656 C 59.789062 114.628906 83.40625 138.246094 112.4375 138.246094 C 141.46875 138.246094 165.089844 114.628906 165.089844 85.597656 C 165.089844 56.566406 141.46875 32.945312 112.4375 32.945312 " fill-opacity="1" fill-rule="nonzero"/><path fill="#cca650" d="M 136.976562 65.246094 C 136.792969 65.058594 136.539062 64.957031 136.273438 64.957031 C 136.011719 64.957031 135.757812 65.058594 135.570312 65.246094 L 105.632812 95.183594 L 89.304688 78.855469 C 89.113281 78.664062 88.859375 78.566406 88.601562 78.566406 C 88.347656 78.566406 88.09375 78.664062 87.898438 78.855469 L 83.574219 83.183594 C 83.386719 83.371094 83.28125 83.625 83.28125 83.886719 C 83.28125 84.152344 83.386719 84.402344 83.574219 84.589844 L 104.929688 105.945312 C 105.117188 106.132812 105.371094 106.238281 105.632812 106.238281 C 105.898438 106.238281 106.148438 106.132812 106.335938 105.945312 L 141.304688 70.980469 C 141.691406 70.589844 141.691406 69.960938 141.304688 69.570312 L 136.976562 65.246094 " fill-opacity="1" fill-rule="nonzero"/></svg>