<svg xmlns="http://www.w3.org/2000/svg" xmlns:xlink="http://www.w3.org/1999/xlink" width="150" zoomAndPan="magnify" viewBox="0 0 112.5 112.499997" height="150" preserveAspectRatio="xMidYMid meet" version="1.0"><defs><clipPath id="71f2c90f79"><path d="M 49 11.199219 L 94 11.199219 L 94 56 L 49 56 Z M 49 11.199219 " clip-rule="nonzero"/></clipPath><clipPath id="5ee1c8fbd5"><path d="M 0.316406 57 L 111.574219 57 L 111.574219 100.800781 L 0.316406 100.800781 Z M 0.316406 57 " clip-rule="nonzero"/></clipPath></defs><g clip-path="url(#71f2c90f79)"><path fill="#cca650" d="M 71.925781 55.261719 C 84.074219 55.261719 93.953125 45.378906 93.953125 33.234375 C 93.953125 21.089844 84.074219 11.210938 71.925781 11.210938 C 59.78125 11.210938 49.902344 21.089844 49.902344 33.234375 C 49.902344 45.378906 59.78125 55.261719 71.925781 55.261719 Z M 53.5625 33.234375 C 53.5625 23.109375 61.800781 14.871094 71.925781 14.871094 C 82.054688 14.871094 90.289062 23.109375 90.289062 33.234375 C 90.289062 43.359375 82.054688 51.597656 71.925781 51.597656 C 61.800781 51.597656 53.5625 43.359375 53.5625 33.234375 Z M 53.5625 33.234375 " fill-opacity="1" fill-rule="nonzero"/></g><path fill="#cca650" d="M 66.546875 43.324219 C 67.5 44.25 68.765625 44.90625 70.160156 45.195312 L 70.144531 47.140625 C 70.136719 48.121094 70.929688 48.925781 71.914062 48.933594 L 71.925781 48.933594 C 72.902344 48.933594 73.699219 48.140625 73.707031 47.164062 L 73.722656 45.1875 C 75.113281 44.894531 76.375 44.238281 77.320312 43.308594 C 78.417969 42.230469 79.023438 40.851562 79.023438 39.421875 L 79.023438 38.636719 C 79.023438 36.738281 77.953125 34.941406 76.164062 33.832031 L 69.808594 29.898438 C 69.066406 29.4375 68.636719 28.792969 68.636719 28.125 L 68.636719 26.894531 C 68.636719 26.296875 68.96875 25.722656 69.570312 25.277344 C 70.226562 24.789062 71.105469 24.523438 72.050781 24.523438 C 72.992188 24.523438 73.871094 24.789062 74.527344 25.277344 C 75.128906 25.722656 75.460938 26.296875 75.460938 26.894531 L 75.460938 28.285156 C 75.460938 29.265625 76.257812 30.066406 77.242188 30.066406 C 78.222656 30.066406 79.023438 29.265625 79.023438 28.285156 L 79.023438 26.894531 C 79.023438 24.183594 76.871094 21.835938 73.832031 21.15625 L 73.832031 19.316406 C 73.832031 18.335938 73.03125 17.535156 72.050781 17.535156 C 71.066406 17.535156 70.265625 18.335938 70.265625 19.316406 L 70.265625 21.15625 C 67.230469 21.835938 65.074219 24.183594 65.074219 26.894531 L 65.074219 28.125 C 65.074219 30.023438 66.144531 31.820312 67.933594 32.929688 L 74.289062 36.863281 C 75.03125 37.324219 75.460938 37.96875 75.460938 38.636719 L 75.460938 39.421875 C 75.460938 40.019531 75.128906 40.597656 74.527344 41.042969 C 73.871094 41.527344 72.992188 41.796875 72.050781 41.796875 L 71.808594 41.796875 C 70.863281 41.796875 69.984375 41.53125 69.328125 41.042969 C 68.726562 40.597656 68.394531 40.019531 68.394531 39.421875 L 68.394531 38.65625 C 68.394531 37.675781 67.597656 36.875 66.613281 36.875 C 65.632812 36.875 64.832031 37.675781 64.832031 38.65625 L 64.832031 39.421875 C 64.832031 40.859375 65.441406 42.242188 66.546875 43.324219 Z M 66.546875 43.324219 " fill-opacity="1" fill-rule="nonzero"/><g clip-path="url(#5ee1c8fbd5)"><path fill="#cca650" d="M 109.082031 60.554688 C 106.597656 57.792969 102.628906 57.519531 99.839844 59.90625 L 83.480469 73.140625 C 83.488281 72.980469 83.488281 72.816406 83.488281 72.652344 C 83.421875 68.707031 80.324219 65.5 76.578125 65.5 L 58.414062 65.5 C 57.367188 65.5 56.378906 64.894531 55.769531 63.878906 C 55.640625 63.660156 55.460938 63.480469 55.257812 63.324219 C 47.820312 57.453125 37.828125 56.6875 29.269531 60.488281 L 26.105469 61.894531 L 19.75 61.894531 L 19.75 58.996094 C 19.75 57.953125 18.90625 57.109375 17.863281 57.109375 L 2.203125 57.109375 C 1.164062 57.109375 0.320312 57.953125 0.320312 58.996094 L 0.320312 93.871094 C 0.320312 94.914062 1.164062 95.757812 2.203125 95.757812 L 17.863281 95.757812 C 18.90625 95.757812 19.75 94.914062 19.75 93.871094 L 19.75 90.878906 L 26.214844 90.878906 L 48.578125 97.980469 C 53.652344 99.855469 57.902344 100.792969 62.15625 100.792969 C 65.5625 100.792969 68.972656 100.191406 72.804688 98.984375 C 73.15625 98.875 73.511719 98.757812 73.871094 98.636719 C 74.648438 98.339844 75.402344 97.984375 76.125 97.582031 C 76.726562 97.246094 77.292969 96.859375 77.824219 96.425781 L 109.074219 70.929688 C 109.179688 70.84375 109.273438 70.75 109.355469 70.644531 C 111.679688 67.738281 111.558594 63.308594 109.082031 60.554688 Z M 15.976562 91.988281 L 4.089844 91.988281 L 4.089844 60.878906 L 15.976562 60.878906 Z M 106.519531 68.148438 L 77.371094 91.925781 C 74.824219 94.003906 71.839844 95.476562 68.640625 96.226562 C 62.304688 97.707031 57.082031 97.109375 49.847656 94.429688 C 49.820312 94.417969 49.789062 94.410156 49.761719 94.398438 L 27.074219 87.195312 C 26.890625 87.136719 26.699219 87.109375 26.503906 87.109375 L 19.75 87.109375 L 19.75 65.667969 L 26.503906 65.667969 C 26.769531 65.667969 27.03125 65.613281 27.269531 65.503906 L 30.800781 63.9375 C 38.011719 60.730469 46.195312 61.574219 52.761719 66.175781 C 54.078125 68.121094 56.164062 69.269531 58.414062 69.269531 L 76.578125 69.269531 C 78.277344 69.269531 79.683594 70.816406 79.714844 72.714844 C 79.734375 73.765625 79.355469 74.761719 78.675781 75.453125 C 78.34375 75.789062 77.953125 76.035156 77.539062 76.171875 C 77.003906 76.261719 76.457031 76.304688 75.910156 76.304688 L 55.703125 76.304688 C 54.664062 76.304688 53.800781 77.128906 53.789062 78.164062 C 53.773438 79.21875 54.625 80.074219 55.675781 80.074219 L 76.742188 80.074219 C 77.308594 80.074219 77.863281 80 78.402344 79.851562 C 80.753906 79.429688 82.972656 78.402344 84.925781 76.824219 L 102.234375 62.824219 C 102.25 62.808594 102.265625 62.796875 102.28125 62.78125 C 103.496094 61.730469 105.179688 61.855469 106.277344 63.078125 C 107.496094 64.425781 107.589844 66.664062 106.519531 68.148438 Z M 106.519531 68.148438 " fill-opacity="1" fill-rule="nonzero"/></g></svg>