<svg xmlns="http://www.w3.org/2000/svg" xmlns:xlink="http://www.w3.org/1999/xlink" width="300" zoomAndPan="magnify" viewBox="0 0 224.87999 225" height="300" preserveAspectRatio="xMidYMid meet" version="1.0"><defs><clipPath id="323c4484ba"><path d="M 108 0.0585938 L 117 0.0585938 L 117 35 L 108 35 Z M 108 0.0585938 " clip-rule="nonzero"/></clipPath><clipPath id="26922bf689"><path d="M 184.511719 102 L 218.683594 102 L 218.683594 111 L 184.511719 111 Z M 184.511719 102 " clip-rule="nonzero"/></clipPath><clipPath id="822031d675"><path d="M 6.183594 102 L 41 102 L 41 111 L 6.183594 111 Z M 6.183594 102 " clip-rule="nonzero"/></clipPath><clipPath id="030f8cf01b"><path d="M 89 210 L 136 210 L 136 224.9375 L 89 224.9375 Z M 89 210 " clip-rule="nonzero"/></clipPath></defs><path fill="#cca650" d="M 148.894531 134.566406 C 135.929688 150.308594 135.929688 163.734375 135.929688 163.734375 L 135.929688 172.84375 L 88.9375 172.84375 L 88.9375 163.734375 C 88.9375 163.734375 88.9375 150.308594 75.972656 134.566406 C 75.972656 134.566406 59.921875 115.84375 68.976562 91.5625 C 77.792969 67.925781 98.375 60.476562 111.386719 60.476562 C 111.742188 60.476562 112.089844 60.480469 112.433594 60.492188 C 112.777344 60.480469 113.125 60.476562 113.484375 60.476562 C 126.492188 60.476562 147.078125 67.929688 155.890625 91.5625 C 164.945312 115.84375 148.894531 134.566406 148.894531 134.566406 Z M 167.183594 108.910156 C 167.492188 102.035156 166.394531 95.191406 163.921875 88.570312 C 161.5 82.066406 158.144531 76.230469 153.945312 71.226562 C 150.175781 66.730469 145.730469 62.898438 140.734375 59.84375 C 136.34375 57.15625 131.597656 55.105469 126.625 53.742188 C 122.234375 52.539062 117.691406 51.902344 113.484375 51.902344 C 113.132812 51.902344 112.78125 51.90625 112.433594 51.914062 C 112.085938 51.90625 111.738281 51.902344 111.386719 51.902344 C 107.179688 51.902344 102.636719 52.539062 98.246094 53.742188 C 93.273438 55.105469 88.527344 57.15625 84.132812 59.84375 C 79.140625 62.898438 74.691406 66.726562 70.921875 71.226562 C 66.726562 76.230469 63.367188 82.066406 60.941406 88.570312 C 58.472656 95.191406 57.378906 102.035156 57.6875 108.910156 C 57.929688 114.378906 59.0625 119.851562 61.046875 125.171875 C 64.242188 133.730469 68.617188 139.140625 69.390625 140.0625 C 75.164062 147.085938 77.863281 153.449219 79.113281 157.550781 C 80.25 161.285156 80.363281 163.714844 80.363281 163.734375 L 80.363281 175.269531 C 80.363281 178.664062 83.113281 181.414062 86.507812 181.414062 L 138.363281 181.414062 C 141.753906 181.414062 144.503906 178.664062 144.503906 175.269531 L 144.503906 163.824219 C 144.519531 163.53125 144.667969 160.867188 145.988281 156.816406 C 147.269531 152.878906 149.957031 146.777344 155.476562 140.0625 C 156.253906 139.140625 160.625 133.730469 163.820312 125.171875 C 165.804688 119.851562 166.9375 114.378906 167.183594 108.910156 " fill-opacity="1" fill-rule="nonzero"/><g clip-path="url(#323c4484ba)"><path fill="#cca650" d="M 116.71875 4.488281 C 116.71875 2.121094 114.800781 0.203125 112.433594 0.203125 C 110.066406 0.203125 108.148438 2.121094 108.148438 4.488281 L 108.148438 34.359375 L 116.71875 34.359375 L 116.71875 4.488281 " fill-opacity="1" fill-rule="nonzero"/></g><g clip-path="url(#26922bf689)"><path fill="#cca650" d="M 214.398438 102.164062 L 184.527344 102.164062 L 184.527344 110.738281 L 214.398438 110.738281 C 216.765625 110.738281 218.683594 108.820312 218.683594 106.453125 C 218.683594 104.085938 216.765625 102.164062 214.398438 102.164062 " fill-opacity="1" fill-rule="nonzero"/></g><path fill="#cca650" d="M 166.441406 154.398438 L 160.378906 160.460938 L 181.5 181.582031 C 183.175781 183.257812 185.890625 183.257812 187.5625 181.582031 C 189.238281 179.910156 189.238281 177.195312 187.5625 175.519531 L 166.441406 154.398438 " fill-opacity="1" fill-rule="nonzero"/><path fill="#cca650" d="M 187.5625 37.386719 C 189.238281 35.710938 189.238281 32.996094 187.5625 31.324219 C 185.890625 29.648438 183.175781 29.648438 181.5 31.324219 L 160.378906 52.445312 L 166.441406 58.507812 L 187.5625 37.386719 " fill-opacity="1" fill-rule="nonzero"/><g clip-path="url(#822031d675)"><path fill="#cca650" d="M 40.34375 102.164062 L 10.472656 102.164062 C 8.105469 102.164062 6.183594 104.085938 6.183594 106.453125 C 6.183594 108.820312 8.105469 110.738281 10.472656 110.738281 L 40.34375 110.738281 L 40.34375 102.164062 " fill-opacity="1" fill-rule="nonzero"/></g><path fill="#cca650" d="M 37.304688 175.519531 C 35.628906 177.195312 35.628906 179.910156 37.304688 181.582031 C 38.980469 183.257812 41.691406 183.257812 43.367188 181.582031 L 64.488281 160.460938 L 58.425781 154.398438 L 37.304688 175.519531 " fill-opacity="1" fill-rule="nonzero"/><path fill="#cca650" d="M 58.425781 58.507812 L 64.488281 52.445312 L 43.367188 31.324219 C 41.691406 29.648438 38.980469 29.648438 37.304688 31.324219 C 35.628906 32.996094 35.628906 35.710938 37.304688 37.386719 L 58.425781 58.507812 " fill-opacity="1" fill-rule="nonzero"/><path fill="#cca650" d="M 111.597656 71.429688 C 111.429688 68.9375 109.140625 67.140625 106.675781 67.554688 C 95.207031 69.464844 88.109375 75.214844 84.050781 79.992188 C 81.886719 82.542969 80.359375 85.070312 79.320312 87.136719 C 78.117188 89.527344 79.398438 92.421875 81.988281 93.117188 L 82.105469 93.148438 C 84.035156 93.671875 86.066406 92.765625 86.96875 90.976562 C 89.277344 86.398438 95.132812 78.1875 108.0625 76.015625 C 110.214844 75.652344 111.75 73.742188 111.605469 71.566406 L 111.597656 71.429688 " fill-opacity="1" fill-rule="nonzero"/><path fill="#cca650" d="M 136.449219 185.429688 L 88.136719 185.429688 C 85.851562 185.429688 84 187.347656 84 189.714844 C 84 192.082031 85.851562 194 88.136719 194 L 136.449219 194 C 138.730469 194 140.585938 192.082031 140.585938 189.714844 C 140.585938 187.347656 138.730469 185.429688 136.449219 185.429688 " fill-opacity="1" fill-rule="nonzero"/><path fill="#cca650" d="M 136.449219 198.011719 L 88.136719 198.011719 C 85.851562 198.011719 84 199.933594 84 202.300781 C 84 204.667969 85.851562 206.585938 88.136719 206.585938 L 136.449219 206.585938 C 138.730469 206.585938 140.585938 204.667969 140.585938 202.300781 C 140.585938 199.933594 138.730469 198.011719 136.449219 198.011719 " fill-opacity="1" fill-rule="nonzero"/><g clip-path="url(#030f8cf01b)"><path fill="#cca650" d="M 134.050781 210.597656 L 90.53125 210.597656 C 89.257812 210.597656 88.621094 212.136719 89.519531 213.035156 L 96.730469 220.246094 C 98.839844 222.355469 101.554688 223.753906 104.5 224.222656 C 106.507812 224.542969 109.113281 224.796875 112.292969 224.796875 C 115.472656 224.796875 118.074219 224.542969 120.082031 224.222656 C 123.027344 223.753906 125.742188 222.355469 127.851562 220.246094 L 135.0625 213.035156 C 135.960938 212.136719 135.324219 210.597656 134.050781 210.597656 " fill-opacity="1" fill-rule="nonzero"/></g></svg>